<?xml version="1.0" encoding="UTF-8"?>
<svg id="Capa_1" data-name="Capa 1" xmlns="http://www.w3.org/2000/svg" viewBox="0 0 496.06 496.06">
  <defs>
    <style>
      .cls-1 {
        fill: #898fab;
      }

      .cls-1, .cls-2, .cls-3, .cls-4, .cls-5, .cls-6, .cls-7, .cls-8, .cls-9, .cls-10, .cls-11, .cls-12, .cls-13, .cls-14 {
        stroke-width: 0px;
      }

      .cls-15 {
        fill: none;
        stroke: #5c5b5c;
        stroke-miterlimit: 10;
        stroke-width: 4px;
      }

      .cls-2 {
        fill: #002a73;
      }

      .cls-3 {
        fill: #1a3b8c;
      }

      .cls-4 {
        fill: #8d8d8d;
      }

      .cls-5 {
        fill: #929496;
      }

      .cls-6 {
        fill: #5f5d60;
      }

      .cls-7 {
        fill: #d1d1d1;
      }

      .cls-8 {
        fill: #2e4495;
      }

      .cls-9 {
        fill: #a1a1a2;
      }

      .cls-10 {
        fill: #001f4f;
      }

      .cls-11 {
        fill: #656465;
      }

      .cls-12 {
        fill: #2b3b90;
      }

      .cls-13 {
        fill: #9d9d9e;
      }

      .cls-14 {
        fill: #5e4d4a;
      }
    </style>
  </defs>
  <path class="cls-10" d="m172.35,194c-2.78,4.08-6.62,9.49-9.3,13.63-1.18,1.82-2.47,2.09-3.98.7-1.83-1.69-5.75-4.71-5.75-4.71,1.04.81,2.47.98,3.71,1.47,2.57,1.03,4.15.73,5.93-2.02,2.02-3.12,4.27-16.45,9.4-9.08Z"/>
  <path class="cls-7" d="m115.38,184.12s13.63-24.23,37.94-34.57l10.56,15.33s-23.59,13.13-37.17,41.04l-11.33-21.8Z"/>
  <ellipse class="cls-15" cx="209.47" cy="245.47" rx="96.25" ry="94.68"/>
  <path class="cls-6" d="m302.6,236.73c-2.19-9.24-6.18-18.58-10.46-27.15-.6-1.21-1.56-2.24-2.36-3.36.21-3.41-1.16-6.81-.02-10.22,7.05,10.02,10.52,21.51,13.55,33.18.2,2.52.94,5.03.25,7.58-.96-.02,0,0-.96-.02Z"/>
  <path class="cls-3" d="m303.48,143.96s21.54-6.37,31.77-9.57c4.45-1.39,9.15-1.07,13.6-.5,8.15,1.04,40.39,7.63,40.39,7.63.62,35.68,1.37,74.4,2.09,110.07.17,8.57.27,17.15.56,25.72.09,2.62-.62,3.77-3.44,3.7-4.56-.11-9.12.11-13.67.2-1.86-5.8-2.14-11.84-2.57-17.83-.22-3.17-.33,3.31-3.09,4.9-2.45,1.41-4.4,2.73-6.18,4.53-4.34,4.37-9.15-5.11-13.72-7.93-8.52-5.25-17.61-9.41-27.94-11.01-5.25-.81-10.43-1.82-15.76-1.86-1.46-.01-.39.46-1.73-.84.04-1.51.14-3.03.13-4.54-.29-27.98-.13-57.11-.43-85.09v-17.57Z"/>
  <path class="cls-6" d="m120.5,215.46c1.31.24,2.14.74,3.45.98-2.9,12.68-5.86,29.4-4.4,42.51,1.03,9.27,3.41,18.22,7.11,26.67,4.62,10.54,11.25,19.86,19.35,28.17,5.36,5.51,12.16,9.05,17.86,14.05-.92,1.6-2.45.77-3.73.94-1.48-3.06-4.58-4.29-7.1-6.11-10.57-7.61-18.63-17.32-25.38-28.43-6-9.88-9.61-20.64-11.44-31.72-2.36-14.31-.52-33.04,4.27-47.05Z"/>
  <path class="cls-6" d="m86.11,254.26c.72.36,1.44.72,2.13,1.13.76.45,1.44,1.01,2.18,1.48.8.51,1.7.7,2.64.79s1.8.18,2.71.27c.7.07,1.58-.21,1.88-.91.28-.65-.26-1.23-.9-1.29-.87-.09-1.75-.17-2.62-.26-.78-.08-1.26-.15-1.89-.63-1.39-1.05-2.92-1.84-4.46-2.62-1.25-.63-3.31,1.19-1.65,2.03h0Z"/>
  <path class="cls-6" d="m89.58,209.4c.6.57,1.15,1.11,1.72,1.73s1.06,1.35,1.6,2.01c.58.71,1.36,1.14,2.19,1.49s1.74.74,2.61,1.1c.65.27,1.63.02,2.05-.55s.26-1.2-.4-1.48c-.83-.35-1.66-.7-2.49-1.05-.18-.08-.36-.16-.54-.24-.04-.02-.18-.09-.06-.03-.09-.05-.19-.11-.27-.17-.33-.22-.43-.35-.68-.7-1.03-1.42-2.25-2.64-3.51-3.86-.22-.21-.71-.27-.99-.25-.36.02-.81.17-1.09.4-.55.46-.67,1.06-.14,1.57h0Z"/>
  <path class="cls-6" d="m90.28,293.43c.82,2.54,3.82,3.39,6.2,3.47,2.96.1,5.96-.8,8.34-2.59.43-.33.81-.95.2-1.32-.57-.35-1.55-.17-2.07.22-1.56,1.18-3.44,1.87-5.41,1.81-1.67-.05-3.79-.57-4.37-2.36-.38-1.17-3.27-.37-2.9.78h0Z"/>
  <path class="cls-3" d="m133.59,114.05c.39-1.5,1.31-2.51,2.8-2.97.4-.23.8-.47,1.2-.7,1.93-1.79,3.82-1.04,5.64.17,2.3,1.53,4.55,3.13,6.83,4.7,1.55,1.07,3.09,1.26,4.44-.29,1.12-1.29,1.8-2.44.67-4.38-1.7-2.93-3.65-5.87-3.39-9.61.21-3.13,1.61-5.17,4.58-6.19,2.96-1.02,3.86,1.42,5.16,3.07,1.8,2.27,3.59,4.57,5.16,7.01,1.16,1.81,2.51,2.45,4.51,1.72,2.1-.77,2.95-2.14,2.68-4.48-.31-2.74-.32-5.52-.33-8.29-.01-4.19,4.44-7.27,8.37-5.94,1.42.48,1.29,1.62,1.45,2.67.58,3.82,1.31,7.63,1.64,11.48.22,2.54,1.83,3.16,3.76,3.69,1.98.54,3.14-.43,3.94-2.12,1.28-2.73,2.69-5.41,3.86-8.18,1.73-4.1,3.51-5.07,7.54-3.8,3.41,1.07,5.01,3.78,3.62,7.45-1.28,3.4-.17,7.48-3.13,10.37-.42.41-.33,1.4.44,1.77,1.04.51,1.85,1.65,3.36.89,2.27-1.14,4.1-2.78,5.9-4.51q5.87-5.66,11.73.17s-.12-.13-.12-.13c.65.54,1.03,1.19.84,2.07-3.21,3.19-5.6,7.08-8.89,10.23-2.28,2.19-.51,3.29,1.76,3.8-.63,1.44-.7,2.28,1.41,2.16,2.69-.15,5.08-1.17,7.53-2.04,6.11-2.17,7.17-1.79,9.94,4.03-.11,1.76,1.39,3.29.7,5.13-4.87-.42-8.98,1.86-12.84,4.23-2.14,1.31-2.2,3.62.76,4.8-.63.92-2.24,2,.28,2.49,1.34.26,2.73.28,4.1.4q10.94.92,10.09,12c-3.85-.13-7.61-1.1-11.52-.93-5.6.25-5.73.2-5.8,5.93-.85,2.11-.56,3.55,1.87,4.5,2.29.9,4.27,2.58,6.56,3.49,2.64,1.05,3.16,2.66,2.45,5.19-.46,1.64-1.04,3.13-2.26,4.33-5.17,2.68-8.99-.01-13.11-2.84-2.58-1.77-4.41-.25-4.44,2.94-2.14,2.52-2.28,4.8.06,7.52,1.87,2.16,4.67,3.98,4.46,7.46-2.67.33-4.13,2.6-5.95,4.09-2.43,2-3.75,1.27-5.49-.66-1.61-1.79-2.47-4.28-4.86-5.36-.53-1.19,1.37-1.94.79-3.12-2.97-.83-4.88,1.58-7.45,1.92-1.69.22-.6,1.83.44,2.61-.65.6-2.05.56-1.94,1.77.09,1.01,1.18.94,1.94,1.05,2.92.42,5.64,1.89,8.68,1.65l-.09-.05c.13.81.38,1.63.38,2.44-.04,7.91-.25,8.33-7.99,6.74-3.39-.7-5.06,1.1-6.13,3.09-1.3,2.4,1.78,2.96,3.09,4.05,4.12,3.42,4.12,4.51.78,8.6-3.28,4.01-5.47.88-7.37-1.06-2.66-2.7-4.6-2.1-6.88.23-2.46,2.51.27,4.06,1.12,5.75,2.76,5.53,2.35,6.26-3.76,7.79-3.46.86-3.14-2.04-4.33-3.48-1.34-1.61-.94-4.71-4.54-4.34-5.33.54-5.35.33-5.56,6.24-.22,6.13-.21,6.01-6.3,5.67-2.88-.16-3.99-1.44-3.8-4.14.1-1.52.17-3.05.4-4.55.37-2.35-.76-3.42-2.83-4.32-4.67-2.03-6.07,2.4-8.3,4.37-4.59,4.05-4.21,4.2-9,.26-2.38-1.95-2.58-3.54-.71-5.83,1.22-1.49,2.04-3.31,3.25-4.81,1.99-2.46,1.18-3.96-1.42-5.04-.51-1.29-1.43-.71-2.37-.64-4.5.33-8.38,3.32-13.01,3.01-.16-.5-.32-1.01-.49-1.51.47-2.51-3.81-5.67,1.17-7.61,2.2-.86,4.58-2.7,4.21-4.94-.34-2.02-3.34-1.17-5.15-1.37-3.59-.38-4.87-2.31-5.03-5.74-.17-3.61.68-5.84,4.83-5.78,2.04.03,4.09-.45,6.15-.66,1.27-.13,2.53-.21,2.89-1.77.38-1.68-.82-2.01-2.02-2.53-2.81-1.2-5.55-2.54-8.32-3.83,1.68-6.61,3.29-7.64,9.79-6.39,1.72.33,3.43,1.19,5.24.3,2.36-1.15,2.81-2.83,1.47-5.04-2.22-4.94-5.83-6.7-11.36-5.53-1.01-2.51-.48-5.12-.46-7.69.02-2.54,1.85-3.62,3.96-4,2.41-.44,4.9-.6,7.36-.64,2-.03,3.06-1.03,3.58-2.75.65-2.18-1.56-1.76-2.44-2.55.62-.93,2.96-.4,2.05-2.72-.66-1.67-1.24-2.93-3.33-2.85-2.7.1-5.38.18-7.83-1.48-.92-.62-2.11-.07-3.01.68-1.52-10.03-.41-11.31,9.61-10.88,1.91.08,3.82.37,5.73.38,2.13,0,3.45-.86,2.76-3.31,2.38-2.02,1.64-3.77-.51-5.31-1.21-.87-2.44-1.78-3.8-2.34-3-1.23-4.54-3.22-4.08-6.54Zm19.82,89.67l-1.87-1.91c-1.72-1.76-.04-3.24.43-4.8,1.1-3.7,4.2-6.68,3.95-10.88.79-.62.79-1.22.23-2.1-2.1-3.25-1.04-5.27,2.93-5.6,1.64-.13,3.31.08,4.95-.06,1.6-.14,3.43.7,5.12-.9-1.9-.95-3.58-.1-5.12-.4-8.23-1.61-17.33,3.34-19.91,10.96-.3.89.42,1.18.96,1.57-.62,1.25-.63,2.73-.74,3.98-.52,5.98-.05,11.87,5.1,16.09,10.33,8.47,25.43,3.85,29.39-8.95.45-1.45,1.07-2.92-.32-4.24.08-1.36.37-2.83-1.66-3.04-2.21-.24-4.31-1.84-6.57-.92-.93.38-5.29,7.44-7.31,10.56-4.36,5.72-4.29,4.88-6.37,3.14,0,0-2.03-1.62-3.27-2.59l.1.1Zm34.43-48.54c.45,1.2-1.24,2.59.49,3.84,1.87-1.47,3.77-2.92,4.86-5.19,1.19-1.61,1.47-3.35.78-5.23,3.08-2.24-.02-4.08-.72-5.63-2.88-6.3-11.05-9.79-16.73-6-5.61,3.74-7.62,8.23-5.18,13.2-.08,1.1-.33,2.22-.19,3.3.3,2.39,1.94,4.16,3.94,4.91,2.19.83,2.49-1.84,3.09-3.03,1.85-3.65,3.98-4.57,7.24-1.74.72.63,1.61,1.05,2.43,1.57Z"/>
  <path class="cls-7" d="m271.78,126.35c-.72-9.55-.07-18.96,2.24-28.3,1.83-7.43,2.36-15.26,6.69-21.89,2.61-4,5.02-8.26,8.29-11.67,7.72-8.06,15.17-16.49,24.84-22.4,1.51-.93,3.2-1.61,4.86-2.24,8.02-3.03,15.2-8.11,23.89-9.55,3.9-.65,6.92-.91,9.39,3.32,1.55,2.67,4.59,3.95,8.57,3.4,6.36-.89,12.71-2.04,19.18-2.51,8.22-.6,16.39-1.83,24.67-1.43,6.24.3,12.22,2.16,17.98,4.2,3.92,1.38,6.16,5.04,6.37,9.79.23,5.09-.33,9.39-4.7,12.84-2.7,2.13-4,5.52-5.23,8.77-2.35,6.21-10.35,11.58-16.97,11.81-9.03.32-17.83-.62-26.62-2.88-5.34-1.37-11.03-.62-16.53-.37-12.08.55-23.54,3.13-34.29,9.34-8.37,4.83-15.75,11.21-24.6,15.19-.5.22-.88.72-1.39.89-9.05,3.03-11.42,10.29-11.93,18.76-.09,1.43.56,3.14-1.24,4.06-4.51.01-9.11-1.43-13.47.87Z"/>
  <path class="cls-9" d="m383.42,332.94c.03-1.06.07-2.11.1-3.16-.47-.3-.93-.6-1.41-.88-1.56,1.3-3.42,1.51-5.37,1.68-3.97.32-7.96.53-11.87,1.2-13.94,2.36-28,3.76-42.01,5.33-10.9,1.21-21.87,2.28-32.69,3.79-16.57,2.33-33.2,3.92-49.74,6.43-2.38.37-6.23-.98-7.06,3.27,1.41,3.17.88,6.58.52,9.75-.93,8.41-.38,16.83-.58,25.24-.3,12.41-.55,24.83-.71,37.24-.03,3.02.33,6.03.52,9.06,1.68.03,3.16-.03,2.36-2.48-.61-1.89-1.18-3.89,1.86-4.3.3-.03.83-.7.78-.76-2.19-3.56,2.28-4.69,2.78-7.46.65-3.51,3.01-3.91,6.46-2.76,1.84.6,3.81-1.38,3.89-2.13.52-3.86,2.84-3.09,5.6-2.39-2.28-1.76-3.02-3.61-1.83-5.95.02-.73.17-1.38.95-1.68-.08-.56-.18-1.13-.27-1.68-.91-.8-.9-1.6-.02-2.41.03-.83.08-1.68.12-2.51-.38-.15-1.08-.38-1.08-.47.47-2.64,1.08-5.25-.47-7.83-.33-.55.35-1.65,1.06-1.31,3.27,1.56,3.41-1.61,4.82-2.94,3.76-3.51,6.8-7.53,11.55-10.37,3.42-2.04,6.88-1.83,9.79-3.29,6.88-3.44,14.24-2.48,21.02-2.29,4.39.12,10.39,1.63,14.13,5.92.55.63.91,2.04,2.18,1.26,1.2-.73.4-1.5-.08-2.39-1.23-2.39.37-3.42,2.21-2.69,5.42,2.14,8.46-3.16,12.95-3.79.96-.13.22-1-.07-1.6-.86-1.84.52-2.06,1.78-2.29.02,0,.02-.02.03-.02,3.21-1.74,6.36-.61,9.51.25.17.13.33.13.5-.02.75-2.16,2.39-2.66,4.54-2.76,2.66-.15,5.32-.08,6.53-3.66.7-2.03,3.41-2.03,4.39.07.86,1.86,1.93,2.29,3.46,1.83,2.04-.61,4.07-.68,6.13-.61.47.02.85-.03,1.16-.15.13-.05.27-.12.37-.18.12-.07.22-.15.3-.25.1-.1.17-.2.23-.32s.12-.23.15-.37c.05-.13.08-.28.1-.43.03-.27.03-.55.02-.86,2.49.75,4.1-2.29,6.61-1.58.3-.03.6-.07.88-.08.25-1.94.48-3.89.73-5.83-1.08-.95-.35-1.38.5-1.78.1-.8.18-1.6.28-2.39-1.01-1.31-1.06-2.49.48-3.42.15-1.06.3-2.13.45-3.21-1.15-1.11-.91-1.96.5-2.59Zm-11.67,20.11c-.03-.13.32-.47.45-.45.68.1.66.7.76,1.21-.52-.08-1.11-.07-1.21-.76Z"/>
  <path class="cls-9" d="m74.13,382.93c3.38-.19,5.52-2.61,7.89-4.52,1.42-1.15,2.91-2.04,4.35-.67,3.25,3.11,6.6,4.63,10.77,1.81-.87,2.47-2.41,4.8-1.53,7.62,0,0,.06.04.06.04-.5.17-1.42.29-1.44.5-.53,5.46-5.06,10.22-2.84,16.15.07,1.54-.43,2.96-.85,4.42-1.36,4.75-2.9,9.47-3.72,14.32-.31,1.83-2.46,5.58,2.03,5.79,4.44.22,8.67,1.39,13.03,1.97,2.52,1.12,4.09.13,5.29-2.17,2.04-3.91,3.69-7.93,4.88-12.19,2.39-8.57,4.97-17.09,7.47-25.64.61-.09,1.41-.06,1.3-.94-.03-.27-.76-.46-1.16-.68.27-.85.55-1.71.82-2.56,1.8.57,3.52,1.16,3.26-1.93-.25-2.92,3.8-1.02,4.09-3.47,1.2.21.67,1.71,1.59,2.13-.73,4.84-.33,5.29,4.66,5.79,2.6.26,5.19.71,7.8.94,3.14.28,3.64,1.33,2.73,4.59-3.56,12.7-8.81,24.84-12,37.66-.6,2.4-.3,3.19,2.11,3.55,4.6.69,9.15,1.9,13.77,2.27,1.91.15,5,.24,5.1-3.29.04-.27.08-.54.12-.81l-.03.04c.91-.97,1.94-1.76,2.4-3.16,4-12.23,8.07-24.44,12.12-36.65.81.04,1.62.07,2.42.11.45.45.95.42,1.49.18,2.98.49,5.97.98,8.95,1.47-1.47,2.16-3.73,1.15-5.68,1.45-1.54.24-3.43-.82-5.49,2.03,4.22-1.2,7.35.06,10.79-.45,1.67-.25,4.83-1.66,6.65,1.19.66,1.03,1.99.51,3.02.02,1.12-.53.64-1.22.67-2.17.08-2.19.89-4.65,2.8-5.88,1.8-1.16,1.98,1.83,3.42,2.15-.47,2.19.23,4.29.44,6.43-1.89.55-5.4-1.37-5.46,1.48-.07,3.37,3.58,1.22,5.5,1.85-.39,17.74,1.4,35.45.74,53.2-.26.26-.52.52-.79.77-1.06-.1-2.12-.21-3.18-.31-.58-1.32-1.42-1.69-2.61-.69-26.45-4.5-52.91-9-79.36-13.5-8.57-1.46-17.15-2.79-25.69-4.39-1.84-.34-4.66-.48-5.78-2.24-1.63-2.56-2.4-7.95-2.54-10.91-.35-7.12-5.11-42.64-4.35-42.68Zm59.8,33.87c.55-2.84,1.15-4.53-.59-6.4-.63,2.09-.85,3.69.59,6.4Zm-9.11-28.61c.3.72.4,1.7,1.33,1.83.97.14,1.44-.62,1.54-1.47.12-1.03-.55-1.41-1.48-1.43-.74-.02-1.31.2-1.38,1.07Zm-4.66,4.82c-.03-.12-.05-.26-.12-.35-.03-.03-.2.05-.3.08.04.12.05.26.12.35.02.03.2-.05.3-.08Z"/>
  <path class="cls-9" d="m97.13,379.56c-4.17,2.81-7.51,1.29-10.77-1.81-1.44-1.37-1.51,4.29-2.94,5.44-1.33,1.08-9.3-.25-9.3-.25,0,0,0-5.44-.27-7.11-1.8-11.41-1.7-23.76-5.15-34.79-.72-2.24-2.14-5.58-1.06-7.91.25-.53,2.81-1.92,3.42-1.78,6.4,1.47,12.97,1.81,19.42,3.17,7.88,1.65,16.12,1.45,24.08,2.81,9.05,1.55,18.17,2.33,27.25,3.57,11.27,1.55,22.55,3.1,33.83,4.62,6.39.86,12.77,1.75,19.17,2.49,3.31.38,1.17,3.61,2.76,4.82-.03,6.7-.06,13.41-.09,20.11-.09.09-.26.2-.25.26.06.21.18.4.28.59-.02,6.71.65,13.44-.3,20.14-1.44-.32-1.62-3.31-3.43-2.15-1.91,1.23-2.72,3.7-2.8,5.88-.03.95.45,1.65-.67,2.17-1.03.49-2.36,1.01-3.02-.02-1.82-2.84-4.98-1.44-6.65-1.19-3.44.52-6.56-.75-10.79.45,2.06-2.85,3.95-1.79,5.49-2.03,1.95-.3,4.21.71,5.68-1.45,2.35.84,3.68.42,4.85-2.24,2.67-6.07,4.42-12.46,6.98-18.55.96-2.29-.47-2.48-2.17-2.71-16.64-2.23-33.29-4.43-49.91-6.81-2.88-.41-4.17.62-5.5,2.99-2.62,4.65-4.13,9.69-5.88,14.65-.92-.42-.4-1.92-1.59-2.13-.28,2.45-4.33.55-4.09,3.47.26,3.09-1.46,2.5-3.26,1.93,1.84-6.31,3.57-12.64,5.55-18.91,1.07-3.39.06-4.87-3.43-4.77-.68.02-1.36.09-2.04.13-2.02-.39-4.02-.91-6.06-1.15-9.48-1.09-11.29.15-14.19,9.55-.12.39-.34.75-.51,1.12-3.2,1.62-2.68,4.6-2.67,7.38Z"/>
  <path class="cls-7" d="m160.15,328.77c-10.47,0-21.08,1.12-31.34-.71-4.19-.75-7.73,1.29-11.76.16-4.03-1.13-8.45-.9-12.7-1.27,2.22-4.63,5.02-8.83,8.99-12.18,1.48-1.25,1.63-2.8.7-4.47-2.4-4.34-4.78-8.68-7.2-13.01-1.39-2.5-3.16-2.9-5.79-1.49-3.87,2.08-14.53-1.52-15.91-4.88-2.12-5.16,1.37-9.36,6.95-11.69,7.01-2.93,7.33-2.65,5.48-10.04-.65-2.61-.49-5.23-.43-7.83.08-3.24-1.39-5.16-4.48-5.3-5.11-.22-8.64-3.5-12.41-6.16-2.66-1.88-1.75-5.17-1.06-7.71.79-2.89,3.53-4.16,6.34-4.6,2.03-.32,4.14-.09,6.21-.14,2.66-.07,4.79-1.32,5.09-3.96.69-5.98,2.99-11.81,1.82-17.98.58-2.61-4.92-2.92-4.92-2.92-2.44-1.65-4.33-3.85-5.8-6.36-2.59-4.39.45-10.1,5.49-10.26,2.87-.09,5.89-.65,8.58.75,3.24,1.69,5.28.14,6.95-2.31,1.86-2.73,3.58-5.57,5.21-8.44,1.08-1.9,2.12-3.62,4.7-3.26,2.77,1.29,5.52,2.63,8.32,3.83,1.2.51,2.4.85,2.02,2.53-.35,1.56-1.62,1.64-2.89,1.77-2.05.21-4.1.69-6.15.66-4.15-.06-5,2.17-4.83,5.78.16,3.44,1.44,5.36,5.03,5.74,1.81.19,4.81-.66,5.15,1.37.38,2.24-2.01,4.09-4.21,4.94-4.98,1.94-.7,5.1-1.17,7.61l-.91,2.64-.06.11c-4.79,14.01-5.31,28.51-2.95,42.82,1.83,11.08,5.44,21.84,11.44,31.72,6.75,11.11,14.8,20.82,25.38,28.43,2.53,1.82,5.62,3.05,7.11,6.11Z"/>
  <path class="cls-9" d="m376.69,373.35c-2.63,2.43-3.14,5.97-4.67,8.97-1.28,2.49-2.31,4.57-5.23,1.41-1.84-1.99-4.52-2.78-7.2-2.48-12.85,1.48-24.48,11.22-28.42,22.8-.43,1.28-.9,2.68.23,3.91.35.07.7.12,1.05.18,7.2.15,13.39-2.44,19.08-6.71,1.33-1,2.91-3.64,4.84-1.53,2.01,2.21,5.15,4.62,3.82,8.13-1.98,5.27-4.5,10.35-7.08,15.37-1.55,3.02-5.15,2.96-7.84,4.1-7.26,3.09-14.81,4.79-22.83,3.69-6.73-.93-10.34-5.14-12.65-10.98-5.2-6.45-5.2-13.51-2.43-20.89.42-1.36.81-2.73,1.21-4.1-.71-2.56-.61-1.76-3.57-1.4-2.46.3-5.33.12-7.96-.43-1.89-.4-3.46-.15-4.79,1.26l2.49.95c.55-.88,1.31-1.38,2.18-.57.66.63.4,1.41-.3,1.98.98,2.29,2.78,4.19,3.17,6.76,3.94,5.7,2.01,11.18-1.05,16.29-6.65,11.07-16.58,17.81-29,21.14-4.04,1.08-8.04,1.84-12.23,1.83-9.9,0-15.94-4.75-18.21-14.34,3.72-2.91,7.49-5.78,9.97-9.95-.95-.7-1.26-1.56-.28-2.38.81-.66,1.83-1.46,2.83-.12,1.01-.58,2.03-.43,3.04.02.02-.42,0-.81.08-1.21.15-.7-.88-1.58.33-2.06.2-.08.6-.02.76.12.75.66.63,1.45.07,2.16-.32.42-.8.71-1.2,1.08.22.85.76,1.36,1.6,1.61,2.84-1.76,4.04-.53,4.34,2.36,1.74.96,3.69.71,5.58.86,2.88-1.15,5.97-1.88,8.79-4.7-3.56-.9-6.65-1.68-9.72-2.49-3.27-.83-5.87-2.39-6.38-6.1-.81-1.48-1.65-2.96-2.46-4.44-.55.07-1.1.15-1.65.22-1.2,2.34-.45,4.19,1.83,5.95-2.76-.7-5.09-1.46-5.6,2.39-.08.75-2.04,2.73-3.89,2.13-3.46-1.15-5.82-.75-6.46,2.76-.5,2.78-4.97,3.91-2.78,7.46.05.07-.48.73-.78.76-3.04.42-2.48,2.41-1.86,4.3.8,2.44-.68,2.51-2.36,2.48-1.43,5.63-.33,11.37-.65,17.03-.15,2.86-.02,5.73,0,8.59,1.23-.02,2.49.08,3.71-.1,11.98-1.91,23.96-3.92,35.95-5.83,30.81-4.89,61.6-9.79,92.41-14.52,2.91-.45,3.89-1.58,4.29-4.37,1.98-14.36,4.4-28.63,6.17-43.01.66-5.42,2.66-10.74,1.71-16.34Zm-108.37,42.99c.28,1-.6.42-.88.63.3-.22.58-.42.88-.63Zm-3.16,3.54c-.22.12-.42.32-.63.32-.2,0-.42-.2-.61-.32.2-.13.4-.25.61-.37.22.12.43.23.63.37Zm-1.45-4.75c.23.27.48.53.7.76-.08.3-.15.52-.2.73-.27-.18-.68-.32-.75-.56-.08-.25.15-.61.25-.93Zm-25.77,12.5c.02-.1.18-.27.28-.27.93-.03.88.73,1.05,1.33-.6-.17-1.35-.13-1.33-1.06Z"/>
  <path class="cls-9" d="m211.83,466.13c-6.18-5.64-4.97-13.43-5.78-20.55-.45-3.96-.06-8.02-.09-12.03-.01-2.46.12-4.82-1.26-7.19-1-1.72-.45-4.01,0-6.08.7-3.26-.02-6.44-.41-9.72-.61-5.18-.76-10.5-.6-15.82.18-5.97,1.88-12.02-.74-18.04-.9-2.08-.45-4.96.02-7.36.67-3.46.89-6.9.12-10.25-.64-2.78.42-3.58,2.84-3.59,3.74-.02,7.47-.03,11.21,0,2.36.03,4.65-.1,6.94-.85,2.87-.94,5.06,1.11,3.93,3.88-2.54,6.24-1.27,12.82-1.89,19.19-1.25,12.87-.27,26.02-2.23,38.74-1.49,9.64-1.54,19.39-3.38,29.01-.99,5.17-2.42,10.7-1.44,16.23.23,1.31-.57,1.68-1.65,1.83-1.54.21-1.43,1.43-1.49,2.53-1.36.02-2.73.05-4.09.07Z"/>
  <path class="cls-7" d="m313.95,325.77c-7.21.14-14.02.27-21.03.58-9.36.41-18.69,1.03-27.91,2.85-3.02.6-6.1,1.04-9.21.51,5.63-3.32,11.48-6.28,16.09-11.12,4.78-5.01,10.89-8.81,13.81-15.47.87-1.05,1.68-2.12,3.1-2.59,14.73-4.92,29.59-9.33,44.89-12.16.38-.07.8.1,1.21.16-2.62,3.4-6.83,2.57-10.27,3.59-2.74.81-5.88.26-6.67,4.07-.07.31-.61.82-.8.77-4.52-1.25-4.48,2.93-6.07,5.11-.89,1.22-1.74,2.52-2.31,3.91-1.08,2.67-3.92,4.5-3.96,7.59-.04,3.54,3.83,4.01,5.46,6.32,1.34,1.9,1.71,4.39,3.67,5.88Z"/>
  <path class="cls-7" d="m289.26,163.65c2.85,4.03,3.61,4.12,7.61.77,1.93-1.61,3.51-3.98,6.6-2.9.76,1.41.42,2.96.53,4.46.57,8.06-.62,16.08-.13,24.19.69,11.52.74,49.28.73,60.84,0,1.11-.19,5.78-.75-.42-.09-.99-.09-3.68-.13-7.46-.13-10.63-1.88-21.23-5.67-31.17-2.13-5.58-4.76-10.96-8.29-15.97-.17-10.78-.33-21.56-.5-32.34Z"/>
  <path class="cls-7" d="m241.57,156.92q.86-11.07-10.09-12c-1.37-.12-2.76-.14-4.1-.4-2.52-.49-.91-1.57-.28-2.49,2.56-.88,5.07-2.03,7.7-2.58,3.75-.78,4.85-3,4.38-6.46.69-1.84-.82-3.37-.7-5.13,2.54,1.29,1.95,3.81,1.77,5.73-.21,2.14.62,2.94,2.25,3.81,4.77,2.53,9.92,4.1,14.92,6.02,3.4,1.31,5.03-1.33,6.46-3.68.71-1.16.79-2.72,2.65-2.66.11.44.21.89.32,1.34-.62,8.16-.37,16.32-.04,24.48-.48,2.76.7,5.67-.8,8.33-6.84-6.71-15.58-9.96-24.23-13.37-.06-.32-.13-.64-.19-.96Z"/>
  <path class="cls-12" d="m274.94,267.76c-.62,1.43-1.77,1.91-3.24,1.81-1.38-.22-2.88.08-4.04-1.02,0-.53-.02-1.05-.03-1.58.78-.95.61-2.08.61-3.17.01-38.72.04-89.42,0-128.13,0-1.2.88-2.87-1.09-3.54-.91-3.89,2.23-4.53,4.63-5.77,4.36-2.3,8.97-.85,13.47-.87.43.51.86,1.01,1.28,1.52l-.05.05c-3.73-.02-7.47-.2-11.19,0-1.74.1-4.62,0-4.3,2.59.31,2.54-.28,4.89-.28,7.33.08,24.95.05,49.89.05,74.84,0,7.28.03,14.55,0,21.83-.03,5.18.94,22.36,0,27.53-.66,3.57.74,5.69,4.18,6.58Z"/>
  <path class="cls-10" d="m289.26,163.65c.17,10.78.33,21.56.5,32.34-1.13,3.41.23,6.81.02,10.22.08,13.93.15,39.85.22,53.78,0,1.03.15,1.92,1.22,2.37-.21.15-.4.32-.57.51-3.33-.37-5.74,2.7-9.05,2.42.04-1.45.75-2.51,2.23-2.46,3.06.12,3.81-2.42,3.36-4.11-1.82-6.94.31-25.71.27-32.57-.09-15.33-1.23-30.63-.98-45.98.29-17.71.03-35.43,0-53.14l.05-.05c2.89,1.16,2.41,3.8,2.45,6.03.16,10.2.19,20.41.27,30.62Z"/>
  <path class="cls-11" d="m233.11,431.9c-1.43,5.63-.34,11.36-.65,17.04-.16,2.86-.01,5.73,0,8.59-1.84,1.22-2.13,4.15-4.85,4.39.3-14.89,1.22-29.77,1.9-44.64.51-11.23.57-22.49,1.5-33.7.81-9.8.72-19.6.74-29.4,0-1.55.54-2.64,1.63-3.58,1.41,3.18.87,6.58.52,9.75-.94,8.42-.38,16.83-.58,25.24-.3,12.42-.55,24.84-.72,37.25-.04,3.01.33,6.03.51,9.05Z"/>
  <path class="cls-10" d="m267.16,132.12c1.97.67,1.09,2.35,1.09,3.54.03,38.72,0,89.42,0,128.13,0,1.1.17,2.23-.61,3.17-.06-1.38-.17-2.75-.18-4.13-.15-22.8-.28-57.58-.47-80.38-.01-1.72.52-3.64-1.05-5.08.02-2.05.04-4.09.06-6.13,1.5-2.66.32-5.57.8-8.33,1.17-8.16,1.05-16.32.04-24.48-.11-.45-.21-.89-.32-1.34.21-1.66.43-3.32.64-4.98Z"/>
  <path class="cls-9" d="m376.08,360.52c-.1,1.3,1.76.56,2.71.88-.12,1.65.48,3.41-.76,4.89-2.54-1.65-3.14-5.27-6.2-6.31-5.42-1.83-10.92-2.23-16.45-.42-3.49-.5-6.4,1.81-9.75,1.96.75-2.16,2.39-2.66,4.54-2.76,2.66-.15,5.32-.08,6.53-3.66.7-2.03,3.41-2.03,4.39.07.86,1.86,1.93,2.29,3.46,1.83,2.04-.61,4.07-.68,6.13-.61.47.02.85-.03,1.16-.15.13-.05.27-.12.37-.18.12-.07.22-.15.3-.25.1-.1.17-.2.23-.32s.12-.23.15-.37c.05-.13.08-.28.1-.43.03-.27.03-.55.02-.86,2.49.75,4.1-2.29,6.61-1.58.23.53.45,1.08.66,1.61-.38,1.94-.76,3.89-1.16,5.83-1.1.15-2.91-.78-3.02.83Z"/>
  <path class="cls-10" d="m304.25,251.39c.27.18,1.06-.17,1.34,0,.04-1.51.14-5.54.13-7.05-.29-27.98-.59-55.96-.89-83.94-.45.37-.9.75-1.34,1.12.76,1.41.42,2.96.53,4.46.57,8.06-.62,16.08-.13,24.19.69,11.52.24,23.12.22,34.68,0,1.46.16,5.69.16,5.69.2,2.52,0,6.47,0,6.47v14.37Z"/>
  <path class="cls-10" d="m123.89,142.05c.89-.75,2.08-1.3,3.01-.68,2.45,1.66,5.13,1.58,7.83,1.48,2.09-.08,2.67,1.17,3.33,2.85.92,2.33-1.42,1.79-2.05,2.72-2.01-.4-4.01-.89-6.04-1.19-3.14-.47-5.36-1.92-6.09-5.18Z"/>
  <path class="cls-10" d="m219.59,123.72c-2.27-.5-4.04-1.61-1.76-3.8,3.29-3.16,5.68-7.04,8.89-10.23,1.23,3.85.04,6.93-2.89,9.57-1.52,1.37-2.84,2.97-4.25,4.46Z"/>
  <path class="cls-10" d="m133.59,114.05c-.46,3.32,1.08,5.31,4.08,6.54,1.36.56,2.6,1.47,3.8,2.34,2.15,1.54,2.89,3.3.51,5.31-3.61-2.66-7.82-4.75-8.94-9.69-.35-1.56-1.11-3.18.54-4.5Z"/>
  <path class="cls-10" d="m124.02,166.06c5.53-1.17,9.14.59,11.36,5.53-1.63-.65-3.2-1.32-5.07-1-3.56.61-5.74-.87-6.29-4.53Z"/>
  <path class="cls-4" d="m71.08,331.33c-1.43.19-2.02,2.11-3.7,1.8.05-3.3,3.43-8.05,6.91-9.15,3.67-1.16,7.46-1.36,11.19-.03-1.43,1.25-3.19.8-4.74.65-4.36-.42-7.38,1.36-9.5,5.02-.52.32-.56.67-.07,1.06,0,.22-.03.43-.08.64Z"/>
  <path class="cls-4" d="m383.53,329.77c-.47-.29-.94-.59-1.42-.88-2.54-2.7-5.07-5.4-7.61-8.09,4.09-.76,8.49,5.28,9.02,8.97Z"/>
  <path class="cls-4" d="m205.81,464.35c.11.44.22.88.33,1.31-3.18-.56-6.19-1.29-5.94-5.53,2.04.09,2.73,2.59,4.77,2.69.28.51.56,1.02.84,1.53Z"/>
  <path class="cls-9" d="m381.98,342.17c-1.01-1.31-1.06-2.49.5-3.43.38,1.22.69,2.43-.5,3.43Z"/>
  <path class="cls-9" d="m378.79,361.4c-.95-.31-2.81.41-2.72-.88.12-1.6,1.94-.68,3.04-.83-.11.57-.21,1.14-.32,1.71Z"/>
  <path class="cls-9" d="m382.92,335.54c-1.14-1.12-.91-1.97.5-2.61.34.96.44,1.88-.5,2.61Z"/>
  <path class="cls-9" d="m191.86,456.66c1.2-.99,2.03-.63,2.61.69-1.01.29-1.96.38-2.61-.69Z"/>
  <path class="cls-11" d="m197.65,457.66c.26-.26.52-.52.79-.77.53.36,1.06.72,1.6,1.08-.11.27-.21.55-.32.82-.8-.17-1.6-.34-2.07-1.13Z"/>
  <path class="cls-9" d="m380.26,353.86c-.22-.53-.44-1.07-.65-1.6.29-.03.59-.06.88-.09.73.67.57,1.23-.22,1.7Z"/>
  <path class="cls-9" d="m381.21,346.33c-1.08-.95-.35-1.38.51-1.77.33.73.22,1.34-.51,1.77Z"/>
  <path class="cls-1" d="m378.25,368.55h-.35c-.12-.27-.05-.47.22-.6.05.2.1.4.13.6Z"/>
  <path class="cls-2" d="m225.89,107.62s.12.13.12.13c0,0-.12-.13-.12-.13Z"/>
  <path class="cls-11" d="m226.74,463.16c.3-.44.6-.88.89-1.32.38.9-.26,1.1-.89,1.32Z"/>
  <path class="cls-7" d="m193.98,148.6c.69,1.89.41,3.63-.78,5.23-1.8.39-3.71.34-5.35,1.36-.81-.52-1.71-.95-2.43-1.57-3.27-2.83-5.39-1.92-7.24,1.74-.61,1.19-.9,3.86-3.09,3.03-2-.75-3.64-2.52-3.94-4.91-.13-1.08.12-2.2.19-3.3,2.02-5.03,5.57-8.33,11.08-8.63,5.28-.29,9.19,2.29,11.57,7.06Z"/>
  <path class="cls-10" d="m193.98,148.6c-2.38-4.77-6.29-7.35-11.57-7.06-5.5.3-9.06,3.6-11.08,8.63-2.43-4.97-.43-9.46,5.18-13.2,5.69-3.79,13.86-.3,16.73,6,.71,1.55,3.8,3.39.72,5.63Z"/>
  <path class="cls-10" d="m155.92,186.13c-3.72-3.17-7.11.31-8.78,1.86,0,0-1.47,1.79-2.06,1.61-.54-.39-1.26-.68-.96-1.57,2.58-7.62,11.68-12.56,19.91-10.96,1.54.3,3.22-.55,5.12.4-1.69,1.59-3.51.76-5.12.9-1.64.14-3.31-.07-4.95.06-3.97.33-5.02,2.34-2.93,5.6.56.87.56,1.47-.23,2.1Z"/>
  <path class="cls-10" d="m225.95,161.52c-.56.13-1.13.27-1.69.4.06-5.73.2-5.68,5.8-5.93,3.91-.18,7.67.79,11.52.93.06.32.13.64.19.96.36,3.45-1.6,4.36-4.57,4.17-.21.04-.39-.03-.53-.18-3.53-1.39-7.11-1.02-10.71-.34Z"/>
  <path class="cls-10" d="m239.18,133c.47,3.46-.63,5.68-4.38,6.46-2.63.55-5.14,1.7-7.7,2.58-2.96-1.18-2.9-3.49-.76-4.8,3.86-2.37,7.97-4.65,12.84-4.23Z"/>
  <path class="cls-10" d="m232.88,179.43c-4.09,7.11-4.14,7.19-10.88,3.04-2.13-1.31-4.48-1.89-6.68-2.93.03-3.2,1.86-4.71,4.44-2.95,4.12,2.82,7.94,5.52,13.11,2.84Z"/>
  <path class="cls-10" d="m219.85,194.51c-.35,2.35-7.26,9.24-9.16,8.75-2.38-.62-2.73-3.64-4.77-4.84,0,0,.09.05.09.05-1.2-1.88-2.39-3.77-3.59-5.65.38-.08.76-.15,1.13-.23,2.39,1.08,3.24,3.57,4.85,5.36,1.74,1.93,3.05,2.66,5.49.66,1.82-1.49,3.27-3.77,5.95-4.09Z"/>
  <path class="cls-10" d="m136.02,216.08c-4.3,1.44-8.61,2.89-12.92,4.33-1.31-.24-1.16-1.72-2.47-1.96,0,0,0,0,0,0,.46-.37-.46.37,0,0,4.63.31,8.51-2.69,13.01-3.01.95-.07,1.86-.65,2.37.64Z"/>
  <path class="cls-10" d="m178.5,196.48c-1.88-.46-7.05-2.08-7.82-2.29-1.1-.29-1.34-1.29-.41-1.67,2.27-.92,4.36.68,6.57.92,2.02.22,1.74,1.68,1.66,3.04Z"/>
  <path class="cls-3" d="m202.43,192.81c-1.7.4-3.39.79-5.09,1.19-1.04-.79-2.13-2.39-.44-2.61,2.57-.34,4.48-2.75,7.45-1.92.57,1.18-1.32,1.93-.79,3.12-.38.08-.75.15-1.13.23Z"/>
  <path class="cls-6" d="m187.85,155.18c1.64-1.01,3.56-.96,5.35-1.36-1.09,2.27-2.99,3.73-4.86,5.2-1.73-1.25-.05-2.64-.49-3.84Z"/>
  <path class="cls-3" d="m286.49,127.05c.02,17.71.29,35.43,0,53.14-.26,15.35.88,30.65.98,45.98.04,6.85-2.09,25.63-.27,32.57.44,1.69-.3,4.22-3.36,4.11-1.48-.06-2.18,1-2.23,2.46,0,0,.01-.02.01-.02-1.75.58-4.77-1.63-5.02,2.27-.55.07-1.1.13-1.65.2-3.44-.89-4.84-3.01-4.18-6.58.95-5.17-.02-22.34,0-27.53.04-7.28,0-14.55,0-21.83,0-24.95.03-49.89-.05-74.84,0-2.44.59-4.8.28-7.33-.32-2.58,2.57-2.49,4.3-2.59,3.72-.21,7.46-.03,11.19,0Z"/>
  <path class="cls-6" d="m250.81,330.51c9.29-5.18,17.89-11.25,25.35-18.89,1.64-1.68,3.29-3.33,4.59-5.28.48-.72,1.86-1.16,1.03-2.32-.71-.99-1.8,0-2.7-.2,2.06-1.69,4.44-.27,6.63-.69-2.92,6.67-9.03,10.46-13.81,15.47-4.61,4.84-10.46,7.8-16.09,11.12-1.77-.38-2.81,3.85-5,.8Z"/>
  <path class="cls-11" d="m273.48,305.72c-1.01.93-2.27,1.2-3.58,1.31.61-2.03,2.23-1.29,3.58-1.31Z"/>
  <path class="cls-11" d="m275.95,304.88c-.33.12-.67.23-1,.35.33-.12.67-.23,1-.35Z"/>
  <path class="cls-11" d="m277.86,304.17c-.43.17-.85.33-1.28.5.43-.17.85-.33,1.28-.5Z"/>
  <path class="cls-11" d="m200.04,457.96c-.53-.36-1.06-.72-1.6-1.08.65-17.75-1.13-35.46-.74-53.2-.01-1.11-.02-2.22-.03-3.34-.21-2.14-.91-4.25-.44-6.43.96-6.7.29-13.42.31-20.14-.01-.28-.03-.57-.04-.85.03-6.7.06-13.41.09-20.11,2.86.58,2.53,2.8,2.53,4.89,0,20.88-.2,41.76.13,62.63.15,9.9-.23,19.79-.18,29.69.01,2.64,2.22,5.33-.03,7.95Z"/>
  <path class="cls-13" d="m205.81,464.35c-.28-.51-.56-1.02-.84-1.53.48.11,1.14.07,1.39.37.38.47-.05.91-.55,1.16Z"/>
  <path class="cls-13" d="m71.16,330.68c-.49-.39-.44-.74.07-1.06-.02.35-.05.7-.07,1.06Z"/>
  <path class="cls-9" d="m318.54,376.16c.2,1.36,1.53.8,2.26,1.28-2.87,3.76-5.75,7.51-8.62,11.27-.25,0-.48.02-.73,0-.4.05-.96-.18-.96.52,0,.07.6.13.91.2.05.25.05.48.03.73-.55.9-1.11,1.78-1.66,2.68-.73.47-.7,1.26-.85,1.98.02.25-.1.38-.35.42-.71-2.56-.61-1.76-3.57-1.4-2.46.3-5.33.12-7.96-.43-1.89-.4-3.46-.15-4.79,1.26-1.08-.18-2.16-.38-3.24-.57-1.76-.8-4.04-.17-5.85-2.06,5.47-2.78,10.6-3.91,15.99-1.03,1.6.85,2.96,1.26,4.32-.48,2.56-3.22,5.22-6.38,7.86-9.54,1.53-1.81,1.38-3.46-.35-5.04-1.46-4.5-4.75-6.65-9.32-7.1-10-3.57-34.25,4.17-41.71,18.93-2.13,2.13-3.04,4.92-4.15,7.61-.38-.15-1.08-.38-1.08-.47.47-2.64,1.08-5.25-.47-7.83-.33-.55.35-1.65,1.06-1.31,3.27,1.56,3.41-1.61,4.82-2.94,3.76-3.51,6.8-7.53,11.55-10.37,3.42-2.04,6.88-1.83,9.79-3.29,6.88-3.44,14.24-2.48,21.02-2.29,4.39.12,10.39,1.63,14.13,5.92.55.63.91,2.04,2.18,1.26,1.2-.73.4-1.5-.08-2.39-1.23-2.39.37-3.42,2.21-2.69,5.42,2.14,8.46-3.16,12.95-3.79.96-.13.22-1-.07-1.6-.86-1.84.52-2.06,1.78-2.29-.02,1.7.08,3.26,2.39,3.21.1.12.22.23.32.33-6.2,3.52-11.3,8.56-17.28,12.38-.42-.85-.66-1.91-1.98-1.6-.2.05-.52.37-.48.53Z"/>
  <path class="cls-5" d="m335.58,361.29h.03s-.02.02-.03.02v-.02Z"/>
  <path class="cls-9" d="m345.12,361.54c-2.01,1.65-4.49,2.34-6.83,3.31-.1-.1-.22-.22-.32-.33.1-.6.15-1.18.1-1.66-.02-.13-.03-.27-.08-.38-.05-.25-.15-.45-.32-.63-.05-.08-.13-.17-.23-.22-.08-.07-.18-.12-.3-.17-.08-.05-.18-.08-.3-.1-.05-.02-.08-.03-.12-.03-.12-.03-.25-.05-.4-.05-.22-.02-.45,0-.71.02,3.21-1.74,6.36-.61,9.51.25Z"/>
  <path class="cls-9" d="m256.66,403.45c-.55.07-1.1.15-1.65.22.02-.73.17-1.38.95-1.68.23.48.47.96.7,1.46Z"/>
  <path class="cls-9" d="m372.98,353.82c-.52-.09-1.13-.08-1.23-.77-.02-.13.32-.47.45-.45.69.1.68.71.77,1.23,0,0,.01-.01.01-.01Z"/>
  <path class="cls-1" d="m255.69,400.31c-.91-.8-.9-1.6-.02-2.41,0,.8.02,1.61.02,2.41Z"/>
  <path class="cls-3" d="m129.42,382.93c1.75-4.97,3.26-10,5.88-14.65,1.33-2.36,2.62-3.4,5.5-2.99,16.62,2.38,33.27,4.58,49.91,6.81,1.7.23,3.13.42,2.17,2.71-2.56,6.09-4.31,12.48-6.98,18.55-1.17,2.66-2.5,3.08-4.85,2.24-2.98-.49-5.97-.98-8.94-1.47-.43-.58-.97-.29-1.49-.18-.81-.04-1.62-.07-2.42-.11-3.03-.21-3.15,2.74-3.51,4.19-2.11,8.5-5.96,16.41-8.06,24.86-.9,3.62-4.25,6.58-2.95,10.76,0,0,.03-.04.03-.04-.61.18-.73.44-.12.81-.09,3.54-3.18,3.44-5.1,3.29-4.62-.37-9.17-1.58-13.77-2.27-2.4-.36-2.7-1.16-2.11-3.55,3.19-12.81,8.44-24.96,12-37.66.91-3.26.42-4.31-2.73-4.59-2.61-.23-5.19-.68-7.8-.94-4.99-.49-5.39-.95-4.66-5.79Z"/>
  <path class="cls-3" d="m99.8,372.17c.17-.37.39-.73.51-1.12,2.9-9.39,4.71-10.64,14.19-9.55,2.04.24,4.04.76,6.05,1.14.5,2.03,5.25,1.01,3.39,4.74-2.64,5.31-3.47,11.2-5.29,16.77-2.28,7-4.56,14.01-6.38,21.14-1.44,5.65-3.36,11.16-4.68,16.86-.7,3.04-1.17,7.37-5.73,8.21-4.35-.58-8.59-1.75-13.03-1.97-4.49-.22-2.35-3.96-2.03-5.79.82-4.84,2.36-9.57,3.72-14.32.42-1.46.92-2.88.85-4.42,2.3-5.33,3.57-10.92,4.28-16.65,0,0-.06-.04-.06-.04,2.58-4.67,3.25-9.88,4.2-15Z"/>
  <path class="cls-10" d="m101.87,430.37c4.56-.84,5.03-5.17,5.73-8.21,1.32-5.7,3.24-11.21,4.68-16.86,1.81-7.13,4.09-14.14,6.38-21.14,1.82-5.58,2.65-11.46,5.29-16.77,1.86-3.73-2.89-2.71-3.39-4.74.68-.04,1.36-.11,2.04-.13,3.49-.1,4.51,1.38,3.43,4.77-1.98,6.26-3.72,12.6-5.55,18.91-.27.85-.55,1.71-.82,2.56-.05.54-.09,1.08-.14,1.62-2.5,8.54-5.08,17.06-7.47,25.64-1.19,4.26-2.84,8.28-4.88,12.19-1.2,2.3-2.77,3.29-5.29,2.17Z"/>
  <path class="cls-10" d="m153.66,433.65c-1.3-4.19,2.05-7.14,2.95-10.76,2.1-8.45,5.96-16.36,8.06-24.86.36-1.45.48-4.41,3.51-4.19-4.06,12.22-8.13,24.42-12.13,36.66-.46,1.4-1.49,2.19-2.4,3.16Z"/>
  <path class="cls-9" d="m95.66,387.21c-.71,5.73-1.98,11.32-4.28,16.65-2.22-5.92,2.3-10.69,2.84-16.15.02-.21.94-.34,1.44-.5Z"/>
  <path class="cls-9" d="m99.8,372.17c-.95,5.13-1.62,10.33-4.2,15-.88-2.82.66-5.15,1.53-7.62,0-2.79-.53-5.76,2.67-7.38Z"/>
  <path class="cls-9" d="m197.66,400.35c.01,1.11.02,2.22.03,3.34-1.91-.63-5.57,1.52-5.5-1.85.06-2.85,3.57-.93,5.46-1.48Z"/>
  <path class="cls-9" d="m133.94,416.81c-1.43-2.71-1.21-4.32-.59-6.4,1.74,1.87,1.13,3.56.59,6.4Z"/>
  <path class="cls-9" d="m124.83,388.2c.07-.87.64-1.09,1.38-1.07.92.02,1.6.4,1.48,1.43-.1.86-.57,1.62-1.54,1.47-.93-.14-1.03-1.11-1.32-1.83Z"/>
  <path class="cls-13" d="m119.52,390.37c.05-.54.09-1.08.14-1.62.41.22,1.13.41,1.16.68.11.88-.69.84-1.3.94Z"/>
  <path class="cls-2" d="m170.61,393.95c.52-.11,1.07-.4,1.49.18-.54.24-1.05.27-1.49-.18Z"/>
  <path class="cls-13" d="m120.17,393.02c-.1.03-.28.11-.3.08-.07-.09-.08-.23-.12-.35.1-.03.28-.11.3-.08.07.09.08.23.12.35Z"/>
  <path class="cls-2" d="m153.57,434.42c-.61-.37-.49-.62.12-.81-.04.27-.08.54-.12.81Z"/>
  <path class="cls-4" d="m197.5,372.92c.01.29.03.57.04.85-.1-.2-.23-.39-.28-.59-.02-.06.16-.17.25-.26Z"/>
  <path class="cls-13" d="m260.85,420.32c-1.89.05-3.09-1.21-4.34-2.36,2.84-1.76,4.04-.53,4.34,2.36Z"/>
  <path class="cls-13" d="m251.89,416.83c-.86.65-1.74,1.28-2.61,1.91-.95-.7-1.26-1.56-.28-2.38.81-.66,1.83-1.46,2.83-.12-.02.2,0,.4.07.58Z"/>
  <path class="cls-9" d="m256.11,415.26c-.32.42-.8.71-1.2,1.08l-.05-.08c.02-.42,0-.81.08-1.21.15-.7-.88-1.58.33-2.06.2-.08.6-.02.76.12.75.66.63,1.45.07,2.16Z"/>
  <path class="cls-9" d="m296.63,397.02c-.61-.47-1.25-.95-1.88-1.41.55-.88,1.31-1.38,2.18-.57.66.63.4,1.41-.3,1.98Z"/>
  <path class="cls-13" d="m264.41,415.9c-.08.3-.14.51-.19.73-.27-.18-.68-.32-.76-.56-.08-.26.15-.62.25-.93.24.27.49.53.7.76Z"/>
  <path class="cls-13" d="m239.3,428.69c-.6-.17-1.38-.12-1.35-1.07,0-.1.17-.27.27-.27.94-.02.89.76,1.06,1.36,0,0,.02-.02.02-.02Z"/>
  <path class="cls-13" d="m264.54,419.51c.21.13.42.25.62.37-.21.12-.42.32-.63.32-.21,0-.42-.21-.62-.32.21-.12.41-.24.63-.37Z"/>
  <path class="cls-13" d="m267.45,416.97l.88-.62c.28,1-.59.41-.87.63h0Z"/>
  <path class="cls-13" d="m267.45,416.97c-.06.12-.13.23-.19.35.06-.12.13-.23.19-.35h0Z"/>
  <path class="cls-5" d="m309.77,392.83c-.12.73.03,1.58-.85,1.98.15-.71.12-1.51.85-1.98Z"/>
  <path class="cls-5" d="m312.18,388.71c0,.61-.17,1.13-.75,1.45.02-.25.02-.48-.03-.73.05-.23.07-.48.05-.71.25.02.48,0,.73,0Z"/>
  <path class="cls-6" d="m237.19,162.04c2.96.19,4.93-.71,4.57-4.17,8.65,3.41,17.4,6.66,24.23,13.37-.02,2.05-.04,4.09-.06,6.14-8.52-7.11-18.58-11.32-28.75-15.34Z"/>
  <path class="cls-8" d="m266.83,138.43c1.01,8.16,1.14,16.32-.04,24.48-.33-8.16-.59-16.32.04-24.48Z"/>
  <path class="cls-3" d="m201.12,290.48c.57,3.55,1.14,7.09,1.71,10.64.07.41.31,1.11.19,1.18-3.85,2.18-2.26,6.02-2.89,9.18-.18.9-1.6,1.65-1.7,1.41-1.86-4.43-5.64,2.12-7.34-1.3-.55-1.11-.05-2.72-.16-4.09-.14-1.77.64-3.57-1.92-4.85-2.09-1.05.33-3.83-.58-5.74-6.67.25-9.01,2.98-8.14,9.74.3,2.32.96,4.78-2.69,4.34-2.53-.3-6.81,1.92-5.84-4.2.46-2.91.68-7.01-4.23-7.75-1.21-.18-1.86-1.61-.91-2.6,2.85-2.98.79-5.13-1-7.8-1.53,2.56-.96,5.07-1.01,7.43-.08,4.01.07,8.02.07,12.04,0,.94.1,2.18-.43,2.78-2.66,3.04-5.88-.51-8.97.58-1.81.64-2.1-1.81-2.13-3.27-.1-4.28-.04-8.56-.04-12.91-6.28.66-6.71.17-5.69-5.7.47-2.72.96-5.45,1.39-8.18.52-3.35.95-6.73,5.59-6.6,1.24.03,1.17-.76,1-1.67-.15-.81-.31-1.66-.21-2.47.25-2.09.62-4.62,3.13-4.71,2.51-.09,4.53,1.68,4.59,4.38.06,2.63.72,4.42,3.3,5.49,1.67.69,2.12,2.43,2.43,4.12.48,2.61,1.47,5.02,2.84,7.3,3.73-3.7,4.51-3.48,6.49,1.34.96,2.34,3.81,2.73,5.37,4.67.7.86,1.22-1.05,1.46-1.82,1.22-3.96,2.08-8.05,3.56-11.91.99-2.59,2.68-4.56,1.88-7.91-.68-2.9,3.15-6.37,5.47-6.17,2.13.18,5.69,4.69,4.99,7.31-.62,2.29.29,3.63,1,5.5,1.47,3.87,2.67,7.85,4.52,11.58-.41,1.04-.36,2.41-1.88,2.68-.32-.64-.65-1.28-.97-1.91-.27-1.61-.62-3.89-2.43-3.53-1.49.3-.73,2.25.17,3.4Z"/>
  <path class="cls-10" d="m225.95,161.52c3.6-.68,7.18-1.05,10.71.34-3.57-.11-7.14-.23-10.71-.34Z"/>
  <path class="cls-10" d="m309.42,379.32c-2.64,3.16-5.3,6.31-7.86,9.54-1.36,1.74-2.73,1.33-4.32.48-5.38-2.87-10.52-1.74-15.99,1.03,1.81,1.89,4.09,1.26,5.85,2.06,1.08.18,2.16.38,3.24.57l2.49.95c.63.47,1.26.95,1.88,1.41.98,2.29,2.78,4.19,3.17,6.76,3.94,5.7,2.01,11.18-1.05,16.29-6.65,11.07-16.58,17.81-29,21.14-4.04,1.08-8.04,1.84-12.23,1.83-9.9,0-15.94-4.75-18.21-14.34,3.72-2.91,7.49-5.78,9.97-9.95.86-.63,1.74-1.26,2.61-1.91-.07-.18-.08-.38-.07-.58,1.01-.58,2.03-.43,3.04.02l.05.08c.22.85.76,1.36,1.6,1.61,1.25,1.15,2.44,2.41,4.34,2.36,1.74.96,3.69.71,5.58.86,2.88-1.15,5.97-1.88,8.79-4.7-3.56-.9-6.65-1.68-9.72-2.49-3.27-.83-5.87-2.39-6.38-6.1-.81-1.48-1.65-2.96-2.46-4.44-.23-.5-.47-.98-.7-1.46-.08-.56-.18-1.13-.27-1.68,0-.8-.02-1.61-.02-2.41.03-.83.08-1.68.12-2.51,1.11-2.69,2.03-5.48,4.15-7.61,7.46-14.76,31.71-22.5,41.71-18.93,4.57.45,7.86,2.59,9.32,7.1,1.73,1.58,1.88,3.22.35,5.04Z"/>
  <path class="cls-9" d="m335.58,361.3c2.58-.25,2.7,1.33,2.39,3.22-2.32.05-2.42-1.54-2.39-3.22Z"/>
  <path class="cls-9" d="m321,377.23l-.2.22c-.73-.48-2.06.08-2.26-1.28-.03-.17.28-.48.48-.53,1.31-.32,1.56.75,1.98,1.6Z"/>
  <path class="cls-13" d="m311.46,388.71c0,.24,0,.48-.05.72-.32-.07-.92-.13-.92-.2,0-.7.57-.47.97-.52Z"/>
  <path class="cls-2" d="m163.01,177.97c3.1-.22,6.31.69,9.03,2.14,2.48,1.33,4.36,3.41,5.33,6.07.12.32,1.55-.12,1.45-.39-1.04-2.86-3.14-5.05-5.85-6.39-2.88-1.42-6.1-2.22-9.32-1.98-.22.02-.87.11-.97.34s.09.23.34.21h0Z"/>
  <path class="cls-6" d="m123.33,330.02c1.96-.19,3.9-.9,5.33-2.28.13-.12.19-.3.04-.44-.16-.15-.56-.14-.75-.13-.66.05-1.44.24-1.93.72-.05.05-.11.1-.16.15-.06.06-.27.18-.01.01-.12.08-.23.18-.35.26-.06.04-.12.08-.18.12-.26.16.21-.12.03-.02-.12.07-.24.13-.37.19-.02.01-.05.02-.08.03-.13.06-.07.03.18-.08-.07.03-.14.06-.21.08s-.14.05-.21.07c.29-.09.37-.12.22-.07-.04.01-.07.02-.11.03-.07.02-.14.04-.21.05-.15.03-.07.02.23-.05-.04,0-.07.01-.11.02-.07.01-.15.03-.22.04-.04,0-.07.01-.11.01.27-.03.33-.04.2-.02-.39.04-.76.11-1.13.25-.25.09-.63.25-.8.47-.1.13-.22.3-.04.44.2.15.52.15.75.13h0Z"/>
  <path class="cls-4" d="m226.74,463.16c-3.17,2.6-6.9,3.13-10.83,2.9.06-1.1-.05-2.32,1.49-2.53,1.08-.15,1.88-.52,1.65-1.83-.98-5.52.45-11.05,1.44-16.23,1.84-9.62,1.9-19.37,3.38-29.01,1.96-12.72.97-25.87,2.23-38.74.62-6.37-.65-12.95,1.89-19.19,1.13-2.78-1.06-4.82-3.93-3.88-2.29.75-4.58.87-6.94.85-3.74-.04-7.47-.02-11.21,0-2.43,0-3.48.81-2.84,3.59.77,3.36.55,6.8-.12,10.25-.46,2.4-.92,5.29-.02,7.36,2.62,6.02.91,12.07.74,18.04-.16,5.31,0,10.64.6,15.82.39,3.28,1.11,6.46.41,9.72-.44,2.07-1,4.35,0,6.08,1.38,2.37,1.25,4.74,1.26,7.19.02,4.01-.36,8.07.09,12.03.81,7.12-.4,14.91,5.78,20.55-1.89-.16-3.79-.31-5.68-.47-.11-.44-.22-.88-.33-1.31.5-.25.93-.69.55-1.16-.24-.3-.91-.26-1.39-.37-2.04-.1-2.73-2.59-4.77-2.69-.16-.45-.33-.9-.49-1.34.11-.28.21-.55.32-.82,2.25-2.61.04-5.31.03-7.95-.05-9.9.34-19.78.18-29.69-.32-20.87-.12-41.75-.13-62.63,0-2.09.33-4.31-2.54-4.89-1.59-1.21.55-4.44-2.76-4.82-8.29-.95-16.56-2.16-24.83-3.24-9.33-1.22-18.64-2.55-27.96-3.84-9.14-1.26-18.33-2.04-27.45-3.6-7.96-1.36-16.21-1.16-24.08-2.81-6.46-1.35-13.02-1.7-19.42-3.17.05-.21.08-.43.08-.64.02-.35.05-.7.07-1.06,2.12-3.66,5.14-5.45,9.5-5.02,1.55.15,3.31.6,4.74-.65,1.05.09,2.12.08,3.16.28,2.71.54,7.83,1.55,9.95,1.74,0,0,4.56.95,5.77.99,4.25.37,20.27.36,24.46,1.11,10.26,1.83,20.87.71,31.33.71.74-.1,8.16.07,8.95.15,11.63,1.17,23.5,1.14,34.32,6.56,2.82,1.41,13.07,6.83,11.71,5.07,12.32-1.85,23.23-8.7,35.69-10.04,6.9-1.62,11.26-1.02,14.27-1.62,9.22-1.82,18.49-2.13,27.84-2.54,7.79-.34,49.7-1.37,55.13-1.72,5.29-.34,17.19-1.23,20.74-1.83,2.1-.36,2.62-1.46,5.72-2,3.95-.69,4.6,4.89,7.61,8.09-1.56,1.31-3.43,1.53-5.38,1.68-3.96.32-7.95.54-11.87,1.2-13.93,2.36-27.99,3.75-42.01,5.33-10.9,1.23-21.86,2.29-32.68,3.8-16.56,2.32-33.21,3.91-49.74,6.42-2.38.36-6.23-.97-7.06,3.28-1.09.94-1.63,2.03-1.63,3.58-.03,9.8.06,19.6-.74,29.4-.92,11.2-.98,22.47-1.5,33.7-.68,14.87-1.59,29.75-1.9,44.64,0,0,.03-.08.03-.08-.3.44-.6.88-.89,1.32Z"/>
  <path class="cls-14" d="m375.18,258.84v25.29c0,.29-.23.53-.52.54h0c-21.5.66-42.88,3.44-63.82,8.37-15.59,3.67-32.31,8.44-42.33,13.77-.13.07-.28.08-.42.03l-37.67-13.52c-.21-.08-.36-.28-.36-.5v-19.13c0-.35.34-.61.68-.52l20.12,5.42c.21.06.43-.01.56-.19,3.12-4.22,41.6-53.59,106.66-11.42.16.11.38.12.55.02l15.74-8.63c.36-.2.79.06.79.47Z"/>
  <path class="cls-3" d="m311.33,380.98c-2.64,3.16-5.3,6.31-7.86,9.54-1.36,1.74-2.73,1.33-4.32.48-5.38-2.87-10.52-1.74-15.99,1.03,1.81,1.89,4.09,1.26,5.85,2.06,1.08.18,2.16.38,3.24.57l2.49.95c.63.47,1.26.95,1.88,1.41.98,2.29,2.78,4.19,3.17,6.76,3.94,5.7,2.01,11.18-1.05,16.29-6.65,11.07-16.58,17.81-29,21.14-4.04,1.08-8.04,1.84-12.23,1.83-9.9,0-15.94-4.75-18.21-14.34,3.72-2.91,7.49-5.78,9.97-9.95.86-.63,1.74-1.26,2.61-1.91-.07-.18-.08-.38-.07-.58,1.01-.58,2.03-.43,3.04.02l.05.08c.22.85.76,1.36,1.6,1.61,1.25,1.15,2.44,2.41,4.34,2.36,1.74.96,3.69.71,5.58.86,2.88-1.15,5.97-1.88,8.79-4.7-3.56-.9-6.65-1.68-9.72-2.49-3.27-.83-5.87-2.39-6.38-6.1-.81-1.48-1.65-2.96-2.46-4.44-.23-.5-.47-.98-.7-1.46-.08-.56-.18-1.13-.27-1.68,0-.8-.02-1.61-.02-2.41.03-.83.08-1.68.12-2.51,1.11-2.69,2.03-5.48,4.15-7.61,7.46-14.76,31.71-22.5,41.71-18.93,4.57.45,7.86,2.59,9.32,7.1,1.73,1.58,1.88,3.22.35,5.04Z"/>
  <path class="cls-10" d="m376.24,366.89c-.18.17-.4.25-.65.28-.18,1.51-.38,3.02-.56,4.52-2.63,2.43-3.14,5.97-4.67,8.97-1.28,2.49-2.31,4.57-5.23,1.41-1.84-1.99-4.52-2.78-7.2-2.48-12.85,1.48-24.48,11.22-28.42,22.8-.43,1.28-.9,2.68.23,3.91.35.07.7.12,1.05.18,7.2.15,13.39-2.44,19.08-6.71,1.33-1,2.91-3.64,4.84-1.53,2.01,2.21,5.15,4.62,3.82,8.13-1.98,5.27-4.5,10.35-7.08,15.37-1.55,3.02-5.15,2.96-7.84,4.1-7.26,3.09-14.81,4.79-22.83,3.69-6.73-.93-10.34-5.14-12.65-10.98-5.2-6.45-5.2-13.51-2.43-20.89.42-1.36.81-2.73,1.21-4.1.25-.03.37-.17.35-.42.88-.4.73-1.25.85-1.98.55-.9,1.11-1.78,1.66-2.68.58-.32.75-.83.75-1.45,2.87-3.76,5.75-7.51,8.62-11.27l.2-.22c5.98-3.82,11.08-8.86,17.28-12.38,2.34-.96,4.82-1.66,6.83-3.31.17.13.33.13.5-.02,3.36-.15,6.27-2.46,9.75-1.96,5.53-1.81,11.03-1.41,16.45.42,3.06,1.05,3.66,4.67,6.2,6.31.03.55.07,1.11.1,1.66-.27.13-.33.33-.22.6Z"/>
  <path class="cls-3" d="m378.7,368.55c-.18.17-.4.25-.65.28-.18,1.51-.38,3.02-.56,4.52-2.63,2.43-3.14,5.97-4.67,8.97-1.28,2.49-2.31,4.57-5.23,1.41-1.84-1.99-4.52-2.78-7.2-2.48-12.85,1.48-24.48,11.22-28.42,22.8-.43,1.28-.9,2.68.23,3.91.35.07.7.12,1.05.18,7.2.15,13.39-2.44,19.08-6.71,1.33-1,2.91-3.64,4.84-1.53,2.01,2.21,5.15,4.62,3.82,8.13-1.98,5.27-4.5,10.35-7.08,15.37-1.55,3.02-5.15,2.96-7.84,4.1-7.26,3.09-14.81,4.79-22.83,3.69-6.73-.93-10.34-5.14-12.65-10.98-5.2-6.45-5.2-13.51-2.43-20.89.42-1.36.81-2.73,1.21-4.1.25-.03.37-.17.35-.42.88-.4.73-1.25.85-1.98.55-.9,1.11-1.78,1.66-2.68.58-.32.75-.83.75-1.45,2.87-3.76,5.75-7.51,8.62-11.27l.2-.22c5.98-3.82,11.08-8.86,17.28-12.38,2.34-.96,4.82-1.66,6.83-3.31.17.13.33.13.5-.02,3.36-.15,6.27-2.46,9.75-1.96,5.53-1.81,11.03-1.41,16.45.42,3.06,1.05,3.66,4.67,6.2,6.31.03.55.07,1.11.1,1.66-.27.13-.33.33-.22.6Z"/>
</svg>