<?xml version="1.0" encoding="UTF-8"?>
<svg id="Capa_1" data-name="Capa 1" xmlns="http://www.w3.org/2000/svg" viewBox="0 0 496.06 496.06">
  <defs>
    <style>
      .cls-1 {
        fill: #00937a;
      }

      .cls-1, .cls-2 {
        stroke-width: 0px;
      }

      .cls-2 {
        fill: #fff;
      }
    </style>
  </defs>
  <path class="cls-1" d="m247.97,422.07c-97.08-.35-174.41-79.25-173.06-175.65,1.33-94.81,78.93-171.42,174.8-170.56,94.69.86,172.61,78.22,171.4,175.39-1.17,93.87-77.23,170.48-173.15,170.82Zm-.08-4.53c92.42.38,167.56-74.54,168.86-166.01,1.34-94.31-74.46-170.47-166.97-171.3-94.86-.86-169.3,75.57-170.49,166.3-1.25,94.83,75.87,171.39,168.61,171.01Z"/>
  <path class="cls-1" d="m342.24,207.24c-9.15,0-17.87,0-26.59,0-4.81,0-9.64-.28-14.43.08-5.06.38-6.91-4.55-4.75-8.35,2.99-5.25,5.98-10.49,8.97-15.73,3.27-5.72,6.53-11.43,9.81-17.14,1.75-3.03,4.36-4.68,7.89-4.68,20-.01,40,0,60,0,.27,0,.55.03.81.04.44.64-.13,1.06-.36,1.48-3.17,6-6.41,11.97-9.54,17.99-.64,1.24-1.42,1.57-2.75,1.56-15.46-.04-30.93,0-46.39-.06-1.42,0-2.26.4-2.91,1.64-.96,1.82-2.03,3.59-3.15,5.31-.87,1.33-.81,1.79.96,1.76,6.12-.08,12.23-.03,18.35-.03,6.19,0,12.37-.01,18.56,0,5.28.02,7.97,4.47,5.48,9.08-5.57,10.32-11.19,20.61-16.74,30.94-2.59,4.81-6.45,7.12-12,7.1-18.83-.08-37.66,0-56.49.03-.75,0-1.51,0-2.58,0,.72-1.17,1.31-2.14,1.92-3.1,3.69-5.79,7.41-11.55,11.04-17.37.7-1.12,1.41-1.57,2.76-1.56,14.78.06,29.55,0,44.33.08,1.75,0,2.72-.53,3.53-2.05,1.22-2.28,2.68-4.43,4.27-6.99Z"/>
  <path class="cls-1" d="m228.71,182.46c-3.83,6.81-7.58,13.49-11.33,20.16-5.55,9.87-11.12,19.73-16.64,29.61-2.25,4.02-5.54,6.05-10.2,6.02-13.13-.06-26.26-.02-39.39-.02-5.32,0-9.02-3.39-9.59-8.76-.29-2.72.13-5.22,1.5-7.71,10.72-19.62,21.34-39.3,31.95-58.98.73-1.34,1.47-1.95,3.14-1.92,7.83.12,15.67.05,23.78.05-1.8,3.29-3.5,6.4-5.21,9.49-7.78,14.04-15.57,28.07-23.35,42.11-1.39,2.5-.45,4.06,2.47,4.12,1.99.04,3.99-.1,5.98.04,1.47.11,2.19-.49,2.88-1.71,5.85-10.41,11.76-20.78,17.64-31.17.49-.86.89-1.55,2.12-1.54,7.77.06,15.54.03,23.3.04.25,0,.5.08.96.15Z"/>
  <path class="cls-1" d="m211.25,237.44c7.1-13.28,14.03-26.21,20.94-39.14,2.62-4.9,5.2-9.82,7.86-14.7.67-1.22.59-1.61-.92-1.57-3.22.09-6.44.03-9.96.03,1.63-3.25,3.15-6.29,4.68-9.33,1.79-3.55,3.62-7.08,5.35-10.66.43-.88.94-1.17,1.89-1.17,20.69.02,41.38.02,62.08,0,1.21,0,1.65.14.93,1.42-3.43,6.18-6.82,12.38-10.18,18.59-.46.85-1.07,1.13-1.99,1.12-7.63-.05-15.25-.03-22.88-.16-1.23-.02-1.54.63-1.97,1.39-6.48,11.54-12.96,23.08-19.43,34.62-3.56,6.34-7.13,12.67-10.64,19.04-.53.96-1.05,1.35-2.21,1.31-7.75-.31-15.51-.53-23.56-.8Z"/>
  <path class="cls-2" d="m284.26,305.81c-4.46-.03-7.17-1.82-7.98-5.3-.11-.46-.62-1.22.28-1.29.65-.05,1.75-.78,2.01.58.7,3.56,5.68,4.71,8.86,3.36,1.32-.56,2.27-1.48,2.28-3.09,0-1.58-1.01-2.41-2.26-2.85-1.99-.69-4.07-1.13-6.1-1.74-3.12-.94-4.54-2.59-4.46-5.09.08-2.57,1.67-4.22,4.83-5.02,3.95-.99,7.98.45,9.25,3.36.3.69.97,1.68.06,2.12-.79.37-1.77.43-2.3-1.08-1.01-2.92-6.83-3.56-8.82-1.14-1.28,1.56-.76,3.5,1.32,4.25,1.73.62,3.56.94,5.34,1.43,4.05,1.13,6.03,3.34,5.6,6.19-.48,3.18-3.34,5.25-7.3,5.29-.21,0-.41,0-.62,0Z"/>
  <path class="cls-2" d="m192.16,305.81c-4.35-.02-7.19-1.81-7.96-5.07-.12-.5-.65-1.32.29-1.53.7-.15,1.51-.41,2.02.74,1.52,3.39,5.33,4.76,8.75,3.26,1.33-.58,2.35-1.51,2.38-3.07.02-1.61-1.07-2.51-2.44-2.95-2.01-.65-4.09-1.11-6.12-1.72-3.04-.92-4.31-2.44-4.27-5.01.04-2.64,1.48-4.24,4.56-4.99,3.17-.77,6.14-.45,8.6,1.92.59.57.99,1.33,1.13,2.16.08.49.87,1.31-.29,1.36-.61.03-1.48.72-2.01-.61-1.23-3.09-5.59-4.18-8.3-2.26-2.07,1.48-1.9,3.89.47,4.81,1.84.71,3.82,1.07,5.73,1.61,4.12,1.16,5.6,3,5.16,6.39-.36,2.79-3.13,4.86-6.65,4.96-.34,0-.69,0-1.03,0Z"/>
  <path class="cls-2" d="m361.4,269.63c-2.61,2.19-5.18,2.55-7.64.82-2.89-2.03-3.12-5.15-2.61-8.33.42-2.63,1.79-4.52,4.53-5.25,1.26-.33,2.42-.16,3.62.21.94.29,1.86,2.26,2.98.05.17-.34,1.39-.28,1.37.98-.08,4.74,0,9.48-.11,14.21-.06,2.49-1.5,4.2-4.05,4.77-2.6.59-5.24.64-7.27-1.52-.56-.6-1.24-1.74-.46-2.34.64-.49,1.71-.21,2.26.93.8,1.66,2.46,1.54,3.97,1.42,1.48-.11,2.54-.89,3.11-2.31.43-1.06.34-2.15.3-3.66Zm.2-5.51c-.04-.54-.05-1.16-.15-1.77-.37-2.2-1.99-3.75-3.94-3.81-1.89-.06-3.35,1.23-3.98,3.46-.49,1.72-.36,3.41.24,5.03.6,1.6,1.83,2.59,3.59,2.59,1.81,0,3.08-.89,3.78-2.62.38-.92.32-1.87.46-2.89Z"/>
  <path class="cls-2" d="m111.14,259.17c0,1.85.02,3.71,0,5.56-.08,5.68-3.92,7.41-8.5,7.05-5.24-.41-7.17-2.77-7.24-8.06-.04-3.57,0-7.15-.01-10.72,0-.91-.15-1.73,1.3-1.71,1.5.02,1.21.95,1.21,1.8.01,3.64.05,7.28,0,10.92-.06,5.76,4.63,6.4,8.28,5.11,1.57-.55,2.22-1.92,2.41-3.54.51-4.18.1-8.37.26-12.55.03-.69-.48-1.7,1-1.74,1.38-.04,1.36.7,1.34,1.68-.04,2.06-.01,4.12-.01,6.18-.01,0-.03,0-.04,0Z"/>
  <path class="cls-2" d="m239.38,258.25c0-2.09.03-3.8-.01-5.51-.02-.88.15-1.41,1.22-1.42,1.03-.01,1.28.42,1.27,1.35-.03,5.9-.01,11.8-.01,17.71,0,.55.07,1.2-.75,1.16-.51-.02-1.32.41-1.39-.65-.05-.84-.55-.67-.96-.33-2.16,1.8-4.4,1.65-6.61.21-2.53-1.64-3.17-4.29-3.03-7,.2-4.02,1.95-6.18,4.95-6.95,1.9-.49,3.45.36,5.32,1.44Zm.35,5.61c-.09-.45-.13-1.52-.5-2.45-.67-1.7-1.86-2.88-3.86-2.81-2.5.09-3.87,2.29-3.82,6.03.05,3.13,1.63,5.23,3.98,5.28,2.56.06,4.2-2.09,4.19-6.05Z"/>
  <path class="cls-2" d="m207.62,258.16c0-2,.03-3.76-.01-5.52-.02-.97.34-1.34,1.33-1.32.94.01,1.15.45,1.15,1.28-.02,5.9,0,11.8-.01,17.7,0,.54.11,1.22-.69,1.23-.5,0-1.34.47-1.41-.6-.05-.76-.36-.69-.92-.42-5.52,2.66-9.94-.28-9.76-6.48.12-3.98,1.94-6.5,5.12-7.25,1.9-.44,3.41.52,5.2,1.38Zm-7.79,5.99s-.01,0-.02,0c0,.55-.06,1.1.01,1.64.3,2.32,1.94,4.04,3.87,4.11,2.13.08,3.54-1.24,4.09-3.78.28-1.3.21-2.58-.11-3.86-.57-2.33-2.09-3.73-4.03-3.67-1.94.07-3.45,1.6-3.8,3.92-.08.54-.01,1.09-.01,1.64Z"/>
  <path class="cls-2" d="m163.96,348.09c.2,5.4-4.33,10.58-9.72,10.2-3.65-.26-6.14-2.11-6.95-5.74-1.2-5.38,1.92-10.93,6.84-12.16,5.61-1.4,9.86,1.93,9.83,7.7Zm-14.61,1.72c-.1,2.75.51,4.72,2.72,5.96,2.01,1.13,3.94.91,5.81-.24,2.71-1.67,4.52-6.11,3.8-9.18-.93-3.94-4.8-5.6-8.31-3.52-2.79,1.65-3.95,4.24-4.02,6.99Z"/>
  <path class="cls-2" d="m246.36,292c0-1.77.04-3.56-.02-5.34-.03-.89.23-1.17,1.14-1.17.94,0,1.13.33,1.12,1.2-.04,5.84-.01,11.67-.04,17.51,0,.46.32,1.25-.58,1.23-.53,0-1.45.48-1.42-.81.01-.68-.48-.34-.84-.13-4.7,2.77-9.22.34-9.68-5.19-.12-1.45.03-2.88.47-4.27,1.26-4.01,5.29-5.46,8.88-3.21.23.14.39.38.96.18Zm-7.86,6.18c0,.27,0,.55,0,.82.09,2.78,1.73,4.9,3.88,5.04,2.13.14,3.82-1.8,4.14-4.74.05-.48.08-.96.05-1.44-.27-3.45-1.82-5.36-4.26-5.28-2.43.07-3.79,2.07-3.81,5.59Z"/>
  <path class="cls-2" d="m147.96,292.17c0-1.77.08-3.6-.03-5.42-.07-1.08.34-1.23,1.27-1.26,1-.03,1.09.41,1.09,1.23-.03,5.84,0,11.68-.03,17.52,0,.42.27,1.07-.43,1.18-.51.08-1.42.28-1.51-.17-.44-2.25-1.19-.5-1.72-.16-2.49,1.58-6.33.61-7.86-2.16-1.75-3.18-1.66-6.46.1-9.6,1.45-2.59,5.27-3.36,7.76-1.75.37.24.56.84,1.37.59Zm.18,5.61c-.06-.34-.13-1.32-.44-2.21-.6-1.75-1.75-2.97-3.75-2.97-1.92,0-2.96,1.17-3.61,2.84-.39.99-.38,2.01-.37,3.04.03,3.22,1.69,5.51,4.02,5.57,2.39.07,4.15-2.33,4.14-6.28Z"/>
  <path class="cls-2" d="m226.67,271.53c-1.12-.19-2.3.76-2.71-1.1-.24-1.07-.93-.21-1.37.06-1.75,1.12-3.63,1.55-5.69,1.16-2.17-.41-3.44-1.7-3.56-3.64-.12-2.04,1.01-3.71,3.14-4.25,1.72-.43,3.51-.6,5.25-.93.75-.14,1.78.05,1.91-1.11.13-1.1-.26-2.04-1.23-2.64-1.64-1.01-5.27-1-6.08,1.36-.43,1.27-1.32.87-1.98.65-1.21-.4-.2-1.22,0-1.63.96-2.07,2.98-2.48,4.97-2.76,1.22-.17,2.46,0,3.67.33,1.81.5,2.82,1.57,2.84,3.5.02,2.13.07,4.26.08,6.38.01,1.5.03,2.99.76,4.6Zm-3.02-6.1c-.24-.27.46-1.29-.77-1.05-1.75.35-3.51.62-5.23,1.08-1.13.3-1.93,1.09-1.79,2.41.13,1.27.94,1.87,2.16,2.1,3.02.56,5.58-1.42,5.64-4.54Z"/>
  <path class="cls-2" d="m400.25,271.5c-.65-.03-1.76.57-2.16-1.16-.21-.9-.85-.09-1.21.14-1.81,1.17-3.75,1.58-5.88,1.15-2.06-.41-3.42-1.8-3.55-3.69-.11-1.71,1.19-3.61,3.11-4.11,1.78-.47,3.63-.64,5.44-.99.75-.14,1.81,0,1.85-1.17.04-1.05-.22-2.02-1.25-2.63-2.07-1.23-4.89-.67-6.03,1.46-.59,1.1-1.38.88-2.02.58-.94-.44-.22-1.17.06-1.71,1.02-2.01,4.45-3.2,7.48-2.64,3.06.57,4.14,1.88,4.16,5.1.02,3.13,0,6.27,0,9.66Zm-2.6-7.19c-1.93.37-3.73.7-5.52,1.07-1.28.26-2.17,1.07-2.1,2.37.08,1.38,1.06,2.1,2.46,2.26,2.98.34,6.05-1.6,5.16-5.7Z"/>
  <path class="cls-2" d="m280.14,267.53c-1.79,3.66-4.55,4.95-8.46,4.03-3.04-.72-4.74-3.23-4.75-7.03-.02-4.94,2.46-7.85,6.68-7.85,3.75,0,6.55,2.85,6.64,6.67.02,1.02-.14,1.44-1.33,1.38-2.61-.12-5.22-.04-7.83-.04-2.11,0-2.29.25-1.54,2.23.56,1.49,1.5,2.67,3.16,2.91,1.68.24,3.45.23,4.32-1.55.76-1.57,1.76-1.35,3.11-.76Zm-6.69-4.66c1.03,0,2.06-.05,3.08.01,1.25.08,1.35-.43.96-1.46-.65-1.72-1.8-2.72-3.64-2.8-1.81-.08-3.13.72-3.97,2.35-.64,1.24-.74,2.09,1.1,1.91.81-.08,1.64-.01,2.46-.01Z"/>
  <path class="cls-2" d="m365.21,305.5c-1.03-.25-2.17.58-2.59-1.1-.18-.71-.91-.09-1.34.19-1.37.87-2.84,1.29-4.48,1.24-2.78-.09-4.62-1.55-4.76-3.84-.13-2.18,1.68-4.08,4.26-4.48,1.48-.23,2.98-.41,4.45-.71.59-.12,1.51.09,1.58-.93.06-.98,0-1.91-.88-2.6-1.69-1.31-5.2-.89-6.19.99-.6,1.12-1.44,1.18-2.12.76-1-.61-.08-1.45.28-2.02,1.26-1.99,5.23-2.88,8.34-1.97,2.25.66,2.96,1.93,3.05,5.17.08,3-.34,6.02.41,9.32Zm-7.17-1.42c1.88,0,3.85-1.48,4.22-3.41.37-1.96.04-2.29-1.9-1.92-1.08.2-2.18.28-3.24.54-1.4.34-2.79.94-2.5,2.68.26,1.57,1.54,2.16,3.43,2.11Z"/>
  <path class="cls-2" d="m166.69,301.28c-.68,5.13-8.12,5.69-11.1,2.85-2.1-2-2.72-6.42-1.31-9.61,1.23-2.78,3.59-4.01,7.07-3.67,3.42.34,5.99,3.73,5.55,7.17-.14,1.04-.77.76-1.31.77-2.74.02-5.49.09-8.23-.02-1.49-.06-1.6.56-1.26,1.7.55,1.85,1.7,3.15,3.61,3.55,1.81.38,3.33-.35,4.17-1.93.76-1.43,1.8-.75,2.81-.8Zm-6.63-4.26c.96,0,1.92-.1,2.86.02,1.71.21,1.68-.76,1.25-1.83-.6-1.47-1.7-2.44-3.37-2.61-1.92-.19-3.3.7-4.22,2.29-.95,1.65-.65,2.12,1.22,2.13.75,0,1.5,0,2.25,0Z"/>
  <path class="cls-2" d="m265.28,301.15c-1.17,3.43-3.1,4.72-6.64,4.65-3.26-.06-5.41-1.6-6.24-4.61-.59-2.16-.54-4.36.22-6.47,1.12-3.1,4.65-4.69,8.17-3.78,2.72.7,4.91,4.13,4.63,7-.1,1.01-.67.84-1.25.84-2.81,0-5.63.05-8.44-.02-1.27-.03-1.53.34-1.18,1.55.57,1.95,1.71,3.3,3.7,3.69,1.79.35,3.33-.36,4.15-1.98.71-1.4,1.74-.62,2.86-.88Zm-6.67-4.13c.95,0,1.92-.07,2.86.01,1.68.14,1.64-.68,1.16-1.85-.66-1.61-1.82-2.5-3.57-2.59-1.93-.1-3.24.81-4.07,2.49-.61,1.24-.65,2.11,1.16,1.95.81-.07,1.64-.01,2.45-.01Z"/>
  <path class="cls-2" d="m164.66,267.33c-1.4,3.52-3.92,4.96-7.44,4.38-3.58-.59-5.58-2.81-5.75-6.39-.23-4.79,1.4-7.48,5.12-8.45,4.38-1.14,8.54,2.41,8.2,6.92-.07.91-.43.94-1.14.93-2.75-.04-5.5.04-8.24-.04-1.38-.04-1.89.28-1.43,1.74.53,1.69,1.39,3.06,3.19,3.4,1.91.36,3.77.15,4.73-1.93.74-1.61,1.79-.47,2.79-.56Zm-6.42-4.1s0,.02,0,.02c1.16,0,2.32-.01,3.48,0,.63.01,1.04-.06.91-.89-.32-2.04-2.06-3.88-3.91-4.06-1.84-.19-4.06,1.21-4.78,3.04-.45,1.16-.65,2.14,1.23,1.9,1.01-.13,2.04-.02,3.07-.02Z"/>
  <path class="cls-2" d="m348.71,264.24c0,4.66-2.55,7.56-6.76,7.67-4.17.11-6.91-2.95-6.91-7.72,0-4.62,2.65-7.53,6.85-7.51,4.2.01,6.82,2.92,6.82,7.56Zm-2.49.03c0-3.32-1.38-5.36-3.83-5.63-2.55-.28-4.52,1.42-4.84,4.17-.46,3.92.96,6.71,3.59,7.07.07,0,.14,0,.21.01,3.07.28,4.87-1.8,4.88-5.62Z"/>
  <path class="cls-2" d="m261.31,262.63c0,2.4.01,4.8,0,7.2,0,.8.41,1.78-1.16,1.77-1.44,0-1.27-.77-1.26-1.7.02-4.87-.04-9.74.04-14.61.02-1.46-.43-1.94-1.86-1.81-1.22.11-2.47.03-3.7.02-.6,0-1.27.15-1.23-.86.03-.76.06-1.33,1.07-1.32,4.67.03,9.33.02,14,0,.82,0,1.04.41,1.06,1.16.02.82-.34,1.06-1.11,1.03-1.44-.05-2.89.04-4.32-.04-1.17-.07-1.56.37-1.53,1.53.07,2.54.02,5.08.02,7.62Z"/>
  <path class="cls-2" d="m326.44,264.31c-.01,4.63-2.67,7.61-6.81,7.61-4.22,0-6.89-3.03-6.85-7.78.04-4.63,2.7-7.5,6.92-7.46,4.16.04,6.75,2.97,6.74,7.63Zm-11.16-.09c0,3.11,1.26,5.26,3.38,5.63,1.75.31,3.34-.11,4.34-1.66,1.5-2.32,1.4-4.85.37-7.27-.69-1.63-2.16-2.42-4-2.31-2.59.15-4.08,2.2-4.09,5.61Z"/>
  <path class="cls-2" d="m340.21,298.27c-.08,5.06-2.5,7.62-7.14,7.54-4.07-.07-6.53-2.95-6.49-7.59.05-4.79,2.67-7.56,7.06-7.44,4.17.11,6.64,2.93,6.57,7.49Zm-11.25-.15c-.15,1.06.07,2.09.46,3.02.74,1.77,2.1,2.95,4.09,2.89,1.98-.06,3.3-1.25,3.95-3.07.61-1.72.61-3.49.06-5.24-.6-1.9-2.19-3.12-4.1-3.12-2.05,0-3.34,1.11-4.02,2.92-.31.81-.59,1.69-.43,2.61Z"/>
  <path class="cls-2" d="m308.31,298.39c0,5.74-4.47,8.98-9.55,6.94-1.52-.61-2.69-1.66-3.27-3.21-.85-2.31-.91-4.72-.2-7.05.97-3.19,3.84-4.67,7.71-4.19,2.82.35,5.01,2.68,5.3,5.67.06.61,0,1.23,0,1.85Zm-11.13-.16c-.12,1.11.13,2.17.6,3.17.76,1.61,2.04,2.63,3.84,2.62,1.88,0,3.23-1.05,3.94-2.78.81-1.98.84-4.02-.03-5.99-.75-1.7-2.05-2.7-3.99-2.66-1.94.04-3.2,1.11-3.89,2.82-.36.87-.62,1.82-.47,2.82Z"/>
  <path class="cls-2" d="m182.6,256.63c1.9.29,3.99.35,5.03,2.45.2.39,1.02,1.13.09,1.52-.62.26-1.5.79-2.08-.37-.93-1.87-2.6-2-4.42-1.62-1.02.22-1.89.73-1.99,1.8-.1,1.16.88,1.64,1.81,1.93,1.7.53,3.45.9,5.13,1.49,2.38.84,3.24,3.13,2.04,5.32-1.23,2.23-3.4,2.67-5.66,2.63-2.34-.04-4.56-.57-5.47-3.16-.13-.36-.96-1,.02-1.28.6-.17,1.51-.93,1.92.23.92,2.6,3.03,2.43,5.12,2.26,1.25-.1,2.04-.99,2.19-2.13.14-1.1-.74-1.67-1.74-1.96-1.31-.38-2.63-.75-3.94-1.16-2.67-.82-3.76-2.06-3.61-4.04.14-1.91,1.57-3.26,4.03-3.76.47-.1.95-.1,1.51-.16Z"/>
  <path class="cls-2" d="m117.81,259.01c1.18-1.17,2.09-1.83,3.27-2.15,3.32-.89,6.25.94,6.45,4.34.19,3.08.02,6.18.07,9.27.02.98-.46,1.11-1.26,1.1-.84,0-1.26-.21-1.25-1.15.04-2.75.02-5.5,0-8.24-.01-2.4-.94-3.48-2.99-3.57-2.18-.09-3.91,1.37-3.99,3.54-.09,2.54-.02,5.08-.04,7.62,0,.83.32,1.8-1.19,1.82-1.44.02-1.29-.81-1.29-1.73.01-3.71-.02-7.42.02-11.13,0-.63-.45-1.51.85-1.7,1.42-.2,1.19.85,1.34,1.96Z"/>
  <path class="cls-2" d="m167.55,356.28c-.4,1.94-.88,3.77-1.13,5.63-.14,1.06-.7,1.25-1.51,1.17-1.01-.1-.65-.86-.54-1.41,1.06-5.14,2.16-10.27,3.18-15.41.29-1.47,1.75-1.11,1.88-.75.49,1.36,1.01.54,1.57.23,3.31-1.86,6.39-.11,6.53,3.7.06,1.65-.07,3.24-.8,4.79-2.05,4.4-5.48,5.25-9.2,2.06Zm.86-2.86c-.19,1.36.32,2.67,2.09,3.15,1.85.5,2.95-.55,3.82-2.01.94-1.58,1.3-3.27,1.17-5.1-.09-1.31-.74-2.23-1.88-2.69-1.21-.49-2.29,0-3.14.9-1.42,1.51-2.1,3.32-2.05,5.74Z"/>
  <path class="cls-2" d="m213.17,303.47c-1.07,1.08-1.91,1.86-3.08,2.18-3.54.96-6.39-.95-6.58-4.62-.15-2.94-.02-5.9-.04-8.85,0-.82.16-1.28,1.13-1.27.93,0,1.38.24,1.37,1.28-.05,2.67-.03,5.35,0,8.03.02,2.41,1.12,3.78,3.03,3.8,2.1.03,3.9-1.68,3.96-3.9.07-2.54.04-5.08.03-7.62,0-.89-.03-1.61,1.24-1.6,1.26,0,1.24.73,1.23,1.61-.02,3.71.03,7.41-.04,11.11-.01.63.65,1.67-.83,1.87-1.49.2-1.14-.91-1.4-2.02Z"/>
  <path class="cls-2" d="m313.8,292.82c1.12-.91,1.97-1.7,3.15-1.93,4.11-.8,6.49,1.1,6.57,5.3.04,2.61.01,5.21,0,7.82,0,.71.26,1.48-1.03,1.49-1.29.01-1.46-.56-1.44-1.61.04-2.54.02-5.08,0-7.62-.02-2.35-1-3.55-2.93-3.66-2.13-.12-3.76,1.31-4.08,3.48-.39,2.66-.19,5.33-.21,8,0,.83.02,1.4-1.14,1.4-1.16,0-1.14-.57-1.14-1.4.02-3.84,0-7.68.02-11.53,0-.69-.31-1.54.93-1.67,1.35-.14,1.1.85,1.31,1.91Z"/>
  <path class="cls-2" d="m299.68,259.18c2.4-2.37,4.62-3.03,7.22-2.09,1.58.57,2.56,1.68,2.61,3.34.1,3.36.04,6.73.09,10.09.01.81-.25,1.04-1.05,1.07-.91.03-1.17-.28-1.15-1.17.05-2.68.04-5.36,0-8.03-.03-2.38-1-3.57-2.93-3.75-2.07-.19-3.78.98-4.19,3.1-.53,2.71-.12,5.48-.23,8.22-.03.74.36,1.65-1.08,1.65-1.45,0-1.06-.93-1.06-1.66-.02-3.71-.04-7.42.02-11.12,0-.6-.57-1.56.71-1.75,1.28-.19,1.41.62,1.05,2.11Z"/>
  <path class="cls-2" d="m385.73,261.07c-1.29.37-2.09.34-2.89-1.01-1.51-2.59-5.24-2-6.55.94-.96,2.16-.95,4.39-.01,6.56.65,1.49,1.75,2.32,3.5,2.37,1.73.04,2.84-.67,3.62-2.16.26-.5.08-1.41,1.22-1.28,1.03.11,1.51.21,1.06,1.43-.92,2.5-3.31,4.08-6.12,3.88-3.37-.24-5.58-2.21-6.06-5.61-.23-1.62-.22-3.26.27-4.89.85-2.87,2.91-4.52,5.98-4.63,3.11-.12,4.87,1.14,5.98,4.39Z"/>
  <path class="cls-2" d="m285.18,264.37c0,3.83,1.45,5.58,4.45,5.54,1.67-.02,2.87-.84,3.23-2.33.34-1.4,1.22-1.21,1.99-.96,1.29.42.22,1.27.03,1.75-.97,2.37-3.34,3.66-5.98,3.42-2.98-.27-5.05-1.88-5.74-4.48-.54-2.03-.49-4.07.03-6.09.68-2.63,2.8-4.28,5.7-4.55,2.48-.22,4.81.86,5.72,2.82.22.47,1.16,1.24.1,1.67-.62.25-1.52.52-2.07-.59-.89-1.82-2.38-2.57-4.42-1.88-2.11.71-3.04,2.45-3.04,5.67Z"/>
  <path class="cls-2" d="m295.59,340.37c.13,1.29-.29,1.8-1.56,1.75-2.26-.09-4.53,0-6.79-.04-.82-.02-1.12.23-1.36,1.07-1.49,5.03-1.53,5.02,3.62,5.02,1.1,0,2.2-.05,3.29.02.49.03,1.38-.45,1.39.59.01.96-.64,1.18-1.53,1.16-2.19-.05-4.39.07-6.58-.05-1.31-.08-1.8.43-1.99,1.63-.27,1.69-.68,3.35-.98,5.03-.18,1.02-.41,1.91-1.76,1.62-1.52-.32-.49-1.26-.38-1.85.94-4.81,1.99-9.61,2.91-14.42.22-1.16.64-1.59,1.86-1.56,3.28.09,6.57.03,9.86.03Z"/>
  <path class="cls-2" d="m344.33,358.25c-3.84,0-5.61-2.61-4.74-7.39.79-4.37,5.02-7,8.84-5.52,1.01.39,1.82,1.04,2.31,1.95,1.4,2.61.87,5.22-.44,7.65-1.19,2.21-3.12,3.4-5.97,3.31Zm5.18-7.8c-.1-1.63-.57-2.95-2.07-3.59-1.39-.59-2.66-.21-3.78.76-1.8,1.55-2.38,3.63-2.29,5.88.05,1.34.7,2.47,2.08,3.02,1.38.55,2.58.1,3.6-.74,1.69-1.39,2.21-3.35,2.46-5.32Z"/>
  <path class="cls-2" d="m203.01,358.25c-3.73,0-5.75-2.46-5.16-6.18.53-3.33,1.82-6.01,5.41-6.94,3.43-.89,6.2,1,6.59,4.5.53,4.77-2.52,8.62-6.84,8.62Zm-3.18-5.91c-.1,2.1.47,3.4,1.9,4.1,1.47.72,2.87.2,3.96-.83,1.62-1.54,2.38-3.57,2.2-5.77-.25-3-3.15-4.18-5.57-2.38-1.81,1.34-2.3,3.31-2.49,4.88Z"/>
  <path class="cls-2" d="m257.55,351.47c-.13,2.21-1.08,4.94-4.14,6.26-3.64,1.57-8.27.13-7.93-5.09.23-3.6,2.03-6.45,5.06-7.37,4.09-1.23,7.03.99,7.01,6.2Zm-2.01-.94c.1-1.66-.44-3.04-2.04-3.69-1.58-.64-2.95-.06-4.09,1.1-1.5,1.52-1.92,3.41-1.87,5.47.04,1.33.54,2.41,1.78,3.01,1.31.63,2.56.34,3.66-.51,1.74-1.35,2.44-3.23,2.56-5.37Z"/>
  <path class="cls-2" d="m136.57,257.29c1.81-.69,2.54.05,3.04,1.65.99,3.14,2.18,6.22,3.47,9.81,1.36-3.66,2.54-6.82,3.72-9.97.17-.45.27-.94.53-1.33.48-.71,1.3-.46,1.86-.28.7.22.14.79-.01,1.17-1.49,3.96-3.01,7.9-4.48,11.87-.31.83-.58,1.42-1.67,1.39-1.03-.03-1.2-.65-1.47-1.37-1.65-4.32-3.32-8.62-4.99-12.93Z"/>
  <path class="cls-2" d="m324.8,356.43c-1.44.88-2.86,2.12-4.9,1.83-1.69-.24-2.71-1.04-2.63-2.79.16-3.23,1.24-6.29,1.87-9.43.24-1.21,1.26-.68,2.18-.66-.61,2.63-1.28,5.17-1.76,7.75-.21,1.11-.97,2.48.51,3.35,1.44.84,2.63.02,3.74-.79,1.74-1.28,2.07-3.3,2.54-5.21.34-1.39.65-2.79.86-4.21.17-1.14.94-1.04,1.68-.94.97.13.44.89.35,1.29-.72,3.33-1.54,6.64-2.26,9.97-.2.9-.19,1.77-1.52,1.59-1.55-.21.27-1.31-.66-1.75Z"/>
  <path class="cls-2" d="m308.53,345.48c-.81,3.74-1.58,7.48-2.43,11.19-.15.67-.06,1.69-1.4,1.53-1.45-.18-.09-1.31-.83-1.76-1.31.72-2.48,1.91-4.27,1.84-2.51-.1-3.73-1.37-3.25-3.79.51-2.55,1.17-5.06,1.67-7.61.26-1.31.81-1.94,2.38-1.41-.6,2.64-1.23,5.32-1.81,8.01-.22.99-.63,2.09.33,2.87,1.06.86,2.17.37,3.25-.17,1.53-.77,2.34-2.09,2.76-3.65.49-1.85.93-3.72,1.24-5.6.25-1.51.94-2,2.37-1.45Z"/>
  <path class="cls-2" d="m259.12,357.98c.8-3.79,1.61-7.52,2.37-11.25.17-.81.12-1.59,1.38-1.46,1.54.16-.16,1.32.78,1.7,1.01-.47,1.86-1.48,3.14-1.83,2.67-.73,4.72.61,4.4,3.31-.36,3.04-1.12,6.03-1.71,9.04-.18.89-.91.68-1.49.67-.99-.02-.59-.72-.49-1.18.54-2.61,1.13-5.2,1.66-7.81.39-1.92-.34-2.75-2.24-2.52-2.06.25-3.35,1.58-3.93,3.44-.66,2.14-1.24,4.33-1.54,6.54-.23,1.71-.98,1.81-2.33,1.35Z"/>
  <path class="cls-2" d="m215.99,346.87c1.23-.63,2.15-1.48,3.36-1.81,2.55-.69,4.72.99,4.32,3.57-.45,2.9-1.21,5.74-1.79,8.62-.22,1.1-.98.98-1.71.88-1.12-.16-.28-.85-.21-1.21.48-2.41,1.08-4.79,1.53-7.2.18-.96.58-2.13-.54-2.81-1.02-.62-2.12-.37-3.11.18-2.06,1.14-2.69,3.18-3.16,5.26-.35,1.53-.63,3.07-.87,4.62-.15.93-.59,1.31-1.52,1.19-1.3-.16-.57-1.09-.49-1.55.62-3.36,1.34-6.7,2.06-10.04.14-.64.21-1.32,1.22-1.31,1.27.01.6.96.92,1.6Z"/>
  <path class="cls-2" d="m190.15,353.81c-1.47,3.5-3.26,4.69-6.55,4.42-1.5-.12-2.56-.89-3.24-2.19-2.05-3.93.64-9.94,4.88-10.97,2.6-.63,4.93.58,5.58,2.87.18.63.45,1.23-.51,1.39-.58.1-1.01.25-1.4-.63-1.22-2.75-4.01-2.85-5.69-.35-1.07,1.6-1.38,3.43-1.38,5.27,0,1.44.64,2.75,2.22,3.08,1.56.32,2.66-.66,3.36-1.85.65-1.09,1.27-1.73,2.72-1.05Z"/>
  <path class="cls-2" d="m237.5,358.25c-2.67-.02-4.13-1.35-4.44-4.06-.53-4.55,1.67-8.26,5.43-9.14,2.59-.6,5,.71,5.5,2.98.11.51.49,1.12-.39,1.28-.54.1-1.19.48-1.46-.51-.38-1.37-1.22-2.27-2.81-2.19-1.64.08-2.64,1-3.3,2.38-.76,1.57-1.2,3.22-1.01,4.97.14,1.31.77,2.36,2.14,2.74,1.21.33,2.12-.33,2.9-1.13.42-.43.73-.98,1.02-1.52.46-.86,1.27-.63,1.8-.38.69.33.13.91-.1,1.34-1.11,2.11-2.75,3.39-5.26,3.23Z"/>
  <path class="cls-2" d="m172.54,295.67c0,2.81-.01,5.61,0,8.42,0,.8.06,1.42-1.12,1.41-1.15,0-1.37-.46-1.37-1.46.03-5.75.03-11.49,0-17.24,0-.97.28-1.3,1.28-1.31,1.06,0,1.23.45,1.22,1.36-.04,2.94-.02,5.88-.02,8.83Z"/>
  <path class="cls-2" d="m168,264.3c0-1.98-.02-3.97.01-5.95,0-.48-.26-1.24.61-1.24.55,0,1.31-.47,1.53.73.23,1.25.8.3,1.13-.05,1-1.07,2.14-1.42,3.51-.83.51.22,1.37.21.84,1.18-.29.52-.14,1.22-1.28,1.14-2.93-.21-3.82.77-3.85,3.82-.03,2.39-.04,4.79.01,7.18.02.96-.27,1.31-1.27,1.31-1.03,0-1.27-.39-1.25-1.33.05-1.98.02-3.97.02-5.95Z"/>
  <path class="cls-2" d="m345.64,292.7c1.12-1.49,2.32-2.25,4.02-1.82.58.15,1.59.04,1.34,1.03-.17.68-.19,1.74-1.72,1.26-1.86-.58-3.32.79-3.44,3.02-.13,2.52-.06,5.05-.06,7.58,0,.91.14,1.71-1.31,1.73-1.59.02-1.15-.98-1.16-1.76-.02-3.64-.04-7.27.02-10.91.01-.68-.55-1.71.84-1.92,1.38-.2,1.3.76,1.46,1.79Z"/>
  <path class="cls-2" d="m315.32,340.66c-.16.86-.31,1.66-.45,2.46-.17,1.02-1.14,2.46,1.17,2.21.45-.05.5.34.45.71-.07.52-.42.72-.87.64-1.49-.28-1.7.74-1.91,1.79-.43,2.15-.89,4.29-1.27,6.45-.18,1-.21,2.04,1.33,1.84.33-.04.71-.29.67.31-.02.4-.01.94-.48,1.05-.94.23-1.93.31-2.83-.1-.87-.4-1.06-1.2-.88-2.09.48-2.49.95-4.97,1.44-7.45.17-.84.79-1.85-.87-1.79-.31.01-.52-.15-.44-.5.09-.4.21-.91.72-.85,1.47.16,1.44-.98,1.63-1.85.41-1.83.38-1.84,2.57-2.81Z"/>
  <path class="cls-2" d="m221.71,293.12c1.17-2.13,2.6-2.67,4.37-2.2.58.15,1.3.36.9,1.23-.26.57-.15,1.47-1.44,1.04-1.84-.62-3.01.43-3.49,2.21-.73,2.7-.19,5.47-.39,8.19-.05.7.65,1.85-1,1.9-1.62.05-1.11-1.04-1.12-1.79-.04-3.71-.04-7.41,0-11.12,0-.64-.45-1.56.86-1.68,1.38-.13,1.02.91,1.31,2.22Z"/>
  <path class="cls-2" d="m329.66,261.65c0-2.94,0-5.89,0-8.83,0-.76-.12-1.5,1.08-1.51,1.2-.02,1.09.72,1.09,1.48,0,5.82-.02,11.64.01,17.45,0,.88-.08,1.37-1.18,1.35-1.07-.02-1-.6-1-1.32.01-2.87,0-5.75,0-8.62Z"/>
  <path class="cls-2" d="m335.14,346.66c1.06-.68,2.09-1.94,3.78-1.71.45.06,1.13.03.83.75-.18.44-.03,1.4-1.01,1.14-2.55-.69-3.42,1.21-4.25,2.89-1.09,2.22-1.29,4.72-1.78,7.11-.21,1.03-.49,1.51-1.52,1.33-1.33-.23-.42-1.02-.32-1.53.67-3.4,1.46-6.78,2.04-10.2.17-1.03.54-1.2,1.43-1.15,1.34.08-.17,1.05.81,1.37Z"/>
  <path class="cls-2" d="m367.67,264.32c0-1.92.03-3.84-.01-5.76-.02-.97.13-1.52,1.32-1.52,1.12,0,1.18.54,1.17,1.4-.03,3.91-.02,7.82,0,11.73,0,.84-.02,1.42-1.16,1.42-1.17,0-1.36-.52-1.34-1.51.05-1.92.01-3.84.01-5.76Z"/>
  <path class="cls-2" d="m131.65,264.33c0-2.05.04-4.1-.02-6.15-.03-.95.35-1.12,1.19-1.12.87,0,1,.37.99,1.1-.02,4.1-.04,8.21.01,12.31.01.94-.35,1.12-1.19,1.12-.86,0-1.01-.36-1-1.1.04-2.05.01-4.1.01-6.15Z"/>
  <path class="cls-2" d="m194.13,264.32c0,1.99-.02,3.97.01,5.96.01.75.04,1.29-1.01,1.31-1.05.01-1.24-.41-1.23-1.33.04-3.97.02-7.95,0-11.92,0-.73-.04-1.29,1.02-1.3,1.05,0,1.25.38,1.22,1.32-.06,1.99-.02,3.97-.02,5.96Z"/>
  <path class="cls-2" d="m139.02,363.1c-.89.09-1.31-.17-1.02-1.28.99-3.76,1.89-7.54,2.86-11.3.13-.49.23-1.16,1.01-1.04,1.02.16.37.81.31,1.25-.49,3.72-.77,7.47-1.68,11.13-.31,1.26-.34,1.25-1.48,1.24Z"/>
  <path class="cls-2" d="m359.32,341.81c-.9,3.4-1.88,7.14-2.87,10.88-.14.54-.35,1.12-1.08.93-.99-.26-.21-.87-.17-1.29.4-3.72.86-7.42,1.64-11.09.3-1.41,1.2-.74,1.87-.84.91-.14.73.53.61,1.42Z"/>
  <path class="cls-2" d="m196.48,345.5c-.82,3.9-1.71,7.74-2.39,11.62-.2,1.14-.77,1.09-1.53,1.05-1.13-.06-.61-.83-.5-1.34.69-3.33,1.49-6.64,2.08-9.99.28-1.6.97-1.88,2.34-1.34Z"/>
  <path class="cls-2" d="m340.62,254.99c1.12-1.97,1.33-4.57,4.75-3.44-1.63,1.12-1.77,3.73-4.75,3.44Z"/>
  <path class="cls-2" d="m370.14,252.85c.21,1.06-.41,1.11-1.31,1.15-1.16.05-1.14-.58-1.17-1.41-.04-1.03.45-1.25,1.37-1.27,1.18-.03,1.15.69,1.11,1.53Z"/>
  <path class="cls-2" d="m194.03,252.51c.32,1.75-.57,1.4-1.18,1.46-1.37.14-.83-.9-.93-1.52-.14-.93.38-1.11,1.21-1.13,1.46-.02.87,1.04.91,1.19Z"/>
  <path class="cls-2" d="m203.69,343.34c1.26-1.54,1.68-3.69,4.53-2.73-1.51.95-1.98,2.95-4.53,2.73Z"/>
  <path class="cls-2" d="m133.78,252.64c.17.96-.05,1.38-1.12,1.37-1.05,0-1.03-.52-1.02-1.25.02-.76-.1-1.45,1.07-1.45,1.12,0,1.19.58,1.06,1.33Z"/>
  <path class="cls-2" d="m142.34,347.15c-.71,0-1.25.15-1.2-.78.06-1.13.74-1.14,1.52-1.07.41.04,1.1-.23.96.6-.13.78-.36,1.54-1.28,1.24Z"/>
  <path class="cls-2" d="m354.69,358.14c-.42-.07-1.22.3-1.01-.7.16-.72.25-1.58,1.35-1.37.43.08,1.19-.36,1.14.63-.05.92-.24,1.7-1.48,1.43Z"/>
  <path class="cls-2" d="m197.41,340.91c-.09.83-.16,1.57-1.26,1.48-.48-.04-.99.11-.92-.65.07-.79.17-1.52,1.26-1.38.41.06.94-.11.93.55Z"/>
</svg>